<svg width="97" height="96" viewBox="0 0 97 96" fill="none" xmlns="http://www.w3.org/2000/svg">
<path opacity="0.6" d="M69.168 48C69.168 52.1534 67.9364 56.2135 65.6288 59.667C63.3213 63.1204 60.0416 65.812 56.2043 67.4015C52.3671 68.9909 48.1447 69.4068 44.0711 68.5965C39.9975 67.7862 36.2556 65.7861 33.3187 62.8492C30.3818 59.9123 28.3818 56.1705 27.5715 52.0969C26.7612 48.0233 27.1771 43.8009 28.7665 39.9636C30.3559 36.1264 33.0476 32.8466 36.501 30.5391C39.9544 28.2316 44.0146 27 48.168 27C53.7375 27 59.079 29.2125 63.0172 33.1508C66.9555 37.089 69.168 42.4305 69.168 48Z" fill="#67AD19"/>
<path d="M48.168 9C40.4545 9 32.9143 11.2873 26.5007 15.5727C20.0872 19.8581 15.0885 25.949 12.1367 33.0753C9.18487 40.2017 8.41254 48.0433 9.91736 55.6085C11.4222 63.1738 15.1366 70.1229 20.5908 75.5772C26.0451 81.0314 32.9942 84.7458 40.5595 86.2506C48.1247 87.7554 55.9663 86.9831 63.0926 84.0313C70.219 81.0795 76.3099 76.0808 80.5953 69.6672C84.8807 63.2537 87.168 55.7135 87.168 48C87.1571 37.6599 83.0446 27.7464 75.7331 20.4349C68.4215 13.1233 58.5081 9.01092 48.168 9ZM81.0292 45H71.973C71.2996 39.7174 68.8911 34.808 65.1255 31.0425C61.36 27.2769 56.4506 24.8684 51.168 24.195V15.1387C58.8476 15.8498 66.0367 19.2242 71.4902 24.6778C76.9437 30.1313 80.3182 37.3204 81.0292 45ZM45.168 45H30.423C31.051 41.3178 32.8069 37.9215 35.4482 35.2802C38.0895 32.639 41.4858 30.883 45.168 30.255V45ZM45.168 51V65.745C41.4858 65.117 38.0895 63.361 35.4482 60.7198C32.8069 58.0785 31.051 54.6822 30.423 51H45.168ZM51.168 51H65.913C65.285 54.6822 63.529 58.0785 60.8877 60.7198C58.2465 63.361 54.8502 65.117 51.168 65.745V51ZM51.168 45V30.255C54.8502 30.883 58.2465 32.639 60.8877 35.2802C63.529 37.9215 65.285 41.3178 65.913 45H51.168ZM45.168 15.1387V24.195C39.8854 24.8684 34.976 27.2769 31.2105 31.0425C27.4449 34.808 25.0364 39.7174 24.363 45H15.3067C16.0177 37.3204 19.3922 30.1313 24.8458 24.6778C30.2993 19.2242 37.4884 15.8498 45.168 15.1387ZM15.3067 51H24.363C25.0364 56.2826 27.4449 61.192 31.2105 64.9575C34.976 68.7231 39.8854 71.1316 45.168 71.805V80.8613C37.4884 80.1502 30.2993 76.7758 24.8458 71.3222C19.3922 65.8687 16.0177 58.6796 15.3067 51ZM51.168 80.8613V71.805C56.4506 71.1316 61.36 68.7231 65.1255 64.9575C68.8911 61.192 71.2996 56.2826 71.973 51H81.0292C80.3182 58.6796 76.9437 65.8687 71.4902 71.3222C66.0367 76.7758 58.8476 80.1502 51.168 80.8613Z" fill="#6428B2"/>
</svg>
