<svg width="335" height="369" viewBox="0 0 335 369" fill="none" xmlns="http://www.w3.org/2000/svg">
<g clip-path="url(#clip0_165_11930)">
<path d="M285.622 8.21504L32.9931 71.2099C14.7962 75.7474 3.72265 94.179 8.25965 112.378C12.7967 130.577 31.2261 141.652 49.4231 137.114L302.052 74.1196C320.249 69.5821 331.323 51.1504 326.786 32.9514C322.249 14.7524 303.819 3.67752 285.622 8.21504Z" fill="#EDF2FF"/>
<mask id="mask0_165_11930" style="mask-type:luminance" maskUnits="userSpaceOnUse" x="23" y="18" width="289" height="108">
<path d="M281.917 19.5773L41.1397 79.6167C28.5418 82.7581 20.8755 95.5185 24.0165 108.118C27.1575 120.717 39.9164 128.384 52.5143 125.243L293.291 65.2035C305.889 62.0621 313.556 49.3018 310.415 36.7025C307.274 24.1031 294.515 16.4359 281.917 19.5773Z" fill="white"/>
</mask>
<g mask="url(#mask0_165_11930)">
<path d="M64.0829 106.518C63.0945 106.765 62.1878 106.886 61.363 106.882C60.5419 106.893 59.8084 106.769 59.1624 106.51C58.5277 106.232 57.9939 105.84 57.5609 105.334C57.1241 104.813 56.7995 104.159 56.5872 103.372L58.9542 101.982C59.121 102.716 59.4248 103.286 59.8655 103.693C60.3023 104.085 60.8458 104.321 61.4957 104.401C62.1608 104.478 62.8812 104.419 63.6568 104.226C64.4019 104.04 65.0026 103.794 65.4588 103.486C65.9303 103.175 66.2575 102.834 66.4403 102.466C66.6193 102.082 66.6591 101.692 66.5605 101.297C66.4508 100.855 66.2039 100.546 65.82 100.367C65.4327 100.173 64.9442 100.06 64.355 100.029C63.7773 99.9796 63.1273 99.964 62.4051 99.9829C61.6182 100.001 60.8428 100.001 60.0787 99.9809C59.3299 99.9581 58.6249 99.851 57.9636 99.6603C57.3024 99.4702 56.7324 99.16 56.2537 98.7296C55.7864 98.2809 55.4523 97.6533 55.2514 96.8474C55.0239 95.935 55.0567 95.0951 55.3499 94.3271C55.6393 93.544 56.1719 92.8622 56.9477 92.2809C57.7349 91.6807 58.7368 91.2288 59.9534 90.9257C61.1547 90.626 62.2494 90.5469 63.2377 90.688C64.2221 90.8141 65.0505 91.1569 65.7227 91.716C66.3953 92.2757 66.8622 93.015 67.1241 93.9352L64.683 95.3198C64.5579 94.8176 64.3662 94.4048 64.1079 94.0815C63.861 93.7393 63.5552 93.4846 63.1904 93.3167C62.8218 93.1345 62.4094 93.0352 61.9533 93.0196C61.5124 93.0006 61.0258 93.0574 60.4936 93.19C59.8701 93.3455 59.3435 93.5656 58.9138 93.8503C58.4993 94.1311 58.2083 94.4544 58.0408 94.8195C57.8696 95.1689 57.8332 95.5412 57.9318 95.937C58.0531 96.4235 58.3323 96.7657 58.7693 96.9636C59.2063 97.1615 59.7441 97.2778 60.3827 97.3124C61.0326 97.3281 61.7358 97.3307 62.4922 97.3196C63.1803 97.2934 63.8759 97.298 64.5791 97.3326C65.2975 97.3633 65.978 97.4685 66.6199 97.6474C67.2625 97.8264 67.8189 98.1477 68.2903 98.612C68.7723 99.0575 69.1164 99.6903 69.3208 100.512C69.5409 101.394 69.4984 102.228 69.1941 103.015C68.8892 103.802 68.3112 104.495 67.4591 105.095C66.6075 105.696 65.4817 106.17 64.0829 106.518ZM72.9843 103.984L71.1023 96.4327L70.0104 92.053L72.3593 91.4665L73.2011 95.1336L73.6118 95.0318C73.6046 94.0965 73.6967 93.2978 73.8867 92.6369C74.0885 91.9563 74.4046 91.409 74.8343 90.995C75.264 90.5809 75.806 90.2922 76.4597 90.1296C77.1897 89.9474 77.8323 89.965 78.3874 90.1819C78.9418 90.3987 79.4152 90.7736 79.8064 91.3058C80.2086 91.8198 80.5371 92.4566 80.7911 93.2168L81.1562 93.126C81.134 92.1947 81.2332 91.3947 81.4546 90.7252C81.6904 90.0525 82.0384 89.5059 82.4988 89.084C82.9742 88.6582 83.5391 88.3643 84.1927 88.201C84.8314 88.0417 85.4263 88.0306 85.9774 88.1684C86.5286 88.3055 87.0262 88.585 87.4709 89.0069C87.9267 89.4106 88.3237 89.9657 88.6614 90.673C89.0146 91.3764 89.3124 92.215 89.5547 93.1887L91.1187 99.4617L88.2219 100.184L86.7487 94.2755C86.5364 93.4238 86.2844 92.7361 85.9918 92.211C85.7149 91.6827 85.3897 91.3189 85.0175 91.121C84.6564 90.9042 84.2404 90.8546 83.7689 90.9721C83.2367 91.1047 82.8168 91.3953 82.5086 91.844C82.2004 92.292 82.0116 92.8641 81.9431 93.5597C81.8699 94.2402 81.9117 94.9893 82.0671 95.807L83.4548 101.373L80.6259 102.079L79.1873 96.3066C78.9673 95.4249 78.7093 94.7137 78.4128 94.1736C78.1131 93.6185 77.7748 93.2344 77.3987 93.0209C77.0226 92.808 76.5987 92.7603 76.1273 92.8778C75.58 93.0143 75.1543 93.3141 74.85 93.7778C74.5607 94.2376 74.3817 94.8156 74.3125 95.5111C74.259 96.2028 74.3158 96.948 74.4823 97.7467L75.8589 103.267L72.9843 103.984ZM97.0031 98.3097C96.3487 98.4729 95.7329 98.4971 95.1557 98.3828C94.5738 98.2528 94.0684 97.9753 93.6393 97.5495C93.2253 97.1197 92.9256 96.5319 92.7395 95.7867C92.5841 95.163 92.5658 94.602 92.684 94.1044C92.8172 93.6028 93.0856 93.1561 93.4885 92.7649C93.8875 92.3586 94.4145 91.9766 95.0688 91.62C95.7186 91.2477 96.4983 90.8755 97.4066 90.5032C97.9049 90.2988 98.3045 90.1185 98.6049 89.9624C98.9203 89.8031 99.1352 89.628 99.2495 89.4386C99.3598 89.2329 99.3748 88.971 99.2952 88.6517C99.1776 88.1801 98.9099 87.8183 98.4919 87.5675C98.0858 87.2971 97.5176 87.2534 96.7876 87.4349C96.3461 87.5453 95.9393 87.7275 95.5671 87.9816C95.2092 88.2324 94.9277 88.5615 94.7227 88.9678C94.5131 89.359 94.4217 89.8344 94.4478 90.3935L91.6711 90.2374C91.6868 89.5875 91.7991 89.0024 92.0087 88.4812C92.2144 87.9457 92.5129 87.4591 92.9047 87.0222C93.2965 86.5853 93.7778 86.2149 94.3479 85.9113C94.9186 85.6076 95.5684 85.3646 96.2984 85.1824C97.4086 84.9055 98.3666 84.8604 99.1724 85.0472C99.9743 85.219 100.645 85.6415 101.184 86.3149C101.72 86.9725 102.135 87.8947 102.431 89.0814L102.989 91.3169C103.117 91.8335 103.26 92.3717 103.415 92.9307C103.582 93.4709 103.751 94.0182 103.921 94.5733C104.103 95.1095 104.289 95.6287 104.479 96.1303L101.901 96.7736C101.735 96.3628 101.568 95.9193 101.401 95.4445C101.234 94.9691 101.073 94.4845 100.917 93.9901L100.552 94.0809C100.483 94.7117 100.312 95.3198 100.038 95.9056C99.7601 96.4751 99.3683 96.9767 98.8622 97.4097C98.3679 97.8238 97.7481 98.1242 97.0031 98.3097ZM97.6143 95.9036C97.9186 95.8279 98.2092 95.6986 98.4874 95.5164C98.7799 95.3302 99.0516 95.0932 99.303 94.8045C99.5538 94.5158 99.7706 94.1866 99.9534 93.8183C100.132 93.4343 100.26 93.0065 100.336 92.5356L99.7843 90.5162L100.355 90.4712C100.149 90.7487 99.8718 90.9956 99.5218 91.2118C99.1717 91.4286 98.7917 91.62 98.3809 91.7872C97.9859 91.9505 97.5862 92.1307 97.1833 92.3279C96.7915 92.5062 96.446 92.7061 96.1456 92.9262C95.8413 93.1312 95.6206 93.3801 95.4835 93.6727C95.3424 93.9502 95.3235 94.2944 95.426 94.7052C95.5547 95.2218 95.8224 95.5836 96.2292 95.7887C96.6354 95.9944 97.0977 96.033 97.6143 95.9036ZM107.312 95.4243L105.821 89.4471L104.337 83.4928L106.755 82.89L107.734 87.0078L108.144 86.9053C108.038 85.8982 108.05 85.0387 108.18 84.3282C108.306 83.6019 108.587 83.0148 109.025 82.5667C109.458 82.1031 110.055 81.7765 110.816 81.5864C110.968 81.5486 111.129 81.5166 111.3 81.4904C111.486 81.4597 111.693 81.4486 111.922 81.4565L112.564 84.5189C112.298 84.4882 112.032 84.4901 111.766 84.5241C111.511 84.5391 111.277 84.5731 111.065 84.6266C110.472 84.7742 109.992 85.055 109.627 85.4691C109.277 85.8799 109.036 86.4004 108.902 87.0313C108.78 87.6433 108.745 88.3467 108.798 89.1408L110.186 94.7078L107.312 95.4243ZM121.668 92.1353C120.405 92.4501 119.395 92.3469 118.634 91.8257C117.87 91.2889 117.311 90.306 116.954 88.8763L115.527 83.15L113.77 83.5882L113.247 81.2952L114.411 81.0052C114.851 80.8955 115.162 80.7453 115.34 80.5552C115.519 80.3658 115.587 80.0902 115.546 79.729L115.388 77.9265L117.053 77.5118L117.712 80.1575L120.86 79.3731L121.457 81.768L118.309 82.553L119.686 88.0737C119.826 88.6366 120.058 89.0148 120.381 89.2094C120.719 89.3995 121.154 89.4282 121.687 89.2956C121.975 89.2238 122.249 89.1232 122.507 88.9939C122.778 88.8456 123.014 88.6575 123.215 88.4296L123.897 91.1674C123.464 91.4371 123.055 91.6441 122.671 91.7878C122.306 91.9439 121.971 92.0595 121.668 92.1353ZM138.666 87.9208C137.525 88.2049 136.466 88.2996 135.49 88.2036C134.509 88.0933 133.628 87.7961 132.845 87.3128C132.059 86.8145 131.378 86.1274 130.805 85.2529C130.231 84.3784 129.791 83.325 129.484 82.0926C129.166 80.8151 129.05 79.6409 129.138 78.5685C129.242 77.4928 129.52 76.5347 129.973 75.6949C130.422 74.84 131.036 74.1294 131.816 73.5638C132.595 72.9976 133.517 72.5822 134.582 72.3164C135.403 72.112 136.19 72.0284 136.942 72.0669C137.695 72.1054 138.375 72.2752 138.983 72.5757C139.603 72.8578 140.131 73.2588 140.568 73.78C141.001 74.2861 141.318 74.9098 141.519 75.6511L139.003 77.0298C138.848 76.3414 138.561 75.8072 138.143 75.4264C137.725 75.0463 137.245 74.8027 136.702 74.6956C136.173 74.5852 135.635 74.5983 135.088 74.7348C134.601 74.8563 134.139 75.0764 133.702 75.3951C133.28 75.7105 132.932 76.1285 132.657 76.649C132.384 77.1695 132.22 77.8083 132.166 78.5646C132.109 79.3058 132.205 80.1784 132.455 81.1822C132.774 82.4596 133.214 83.4484 133.776 84.1485C134.353 84.8447 135.017 85.3013 135.765 85.5181C136.525 85.7166 137.323 85.7114 138.16 85.5024C139.011 85.2902 139.647 84.9545 140.065 84.4947C140.479 84.0199 140.731 83.4726 140.819 82.8528C140.902 82.218 140.876 81.5623 140.74 80.8857L143.38 80.6878C143.562 81.4819 143.626 82.2578 143.573 83.0141C143.518 83.7704 143.313 84.4679 142.956 85.1066C142.613 85.7415 142.09 86.2999 141.386 86.7818C140.683 87.2645 139.776 87.6439 138.666 87.9208ZM152.484 84.4751C151.314 84.767 150.221 84.7892 149.206 84.5417C148.188 84.2785 147.304 83.7475 146.556 82.9488C145.819 82.1311 145.28 81.0378 144.939 79.669C144.589 78.2694 144.56 77.0494 144.849 76.0077C145.15 74.9477 145.693 74.0771 146.476 73.3973C147.26 72.7174 148.214 72.2367 149.339 71.9565C150.51 71.6646 151.603 71.6424 152.618 71.8899C153.632 72.1374 154.516 72.6684 155.268 73.4828C156.017 74.2816 156.563 75.3729 156.908 76.7568C157.257 78.1557 157.289 79.3842 157.003 80.4409C156.717 81.497 156.175 82.3676 155.376 83.0513C154.589 83.7162 153.625 84.1903 152.484 84.4751ZM152.053 82.2565C152.691 82.0972 153.195 81.8183 153.564 81.4193C153.93 81.0052 154.152 80.4729 154.232 79.8231C154.328 79.1693 154.273 78.432 154.068 77.6104C153.852 76.7437 153.539 76.0384 153.129 75.4944C152.73 74.9314 152.253 74.5415 151.698 74.324C151.159 74.1033 150.539 74.0804 149.84 74.2548C149.232 74.4063 148.737 74.691 148.357 75.109C147.973 75.512 147.731 76.0325 147.632 76.6712C147.548 77.306 147.612 78.0493 147.824 78.9009C148.157 80.2391 148.695 81.1959 149.436 81.77C150.192 82.3408 151.064 82.5027 152.053 82.2565ZM160.974 82.043L159.16 74.7655L158 70.1115L160.394 69.5146L161.236 73.1817L161.647 73.0792C161.636 72.1289 161.734 71.3211 161.94 70.6562C162.16 69.9874 162.516 69.4382 163.007 69.0084C163.497 68.5794 164.115 68.2718 164.86 68.0863C166.214 67.7486 167.36 67.972 168.298 68.7557C169.251 69.5355 169.978 70.9292 170.479 72.9368L172.06 79.2791L169.163 80.0014L167.656 73.9557C167.333 72.6632 166.901 71.7691 166.358 71.2747C165.826 70.7614 165.18 70.5994 164.42 70.7888C163.78 70.9481 163.292 71.2878 162.954 71.8083C162.611 72.3138 162.402 72.9316 162.325 73.6618C162.26 74.3723 162.318 75.1254 162.5 75.9195L163.848 81.3265L160.974 82.043ZM179.317 77.76C178.055 78.0747 177.044 77.9715 176.284 77.4497C175.52 76.9135 174.961 75.9306 174.604 74.501L173.177 68.7746L171.42 69.2129L170.897 66.9198L172.06 66.6299C172.501 66.5201 172.811 66.3699 172.99 66.1799C173.169 65.9898 173.237 65.7142 173.196 65.3531L173.038 63.5513L174.702 63.1361L175.362 65.7821L178.51 64.9974L179.107 67.3927L175.959 68.1777L177.336 73.6983C177.476 74.2613 177.707 74.6395 178.031 74.8341C178.369 75.0241 178.804 75.0529 179.336 74.9203C179.625 74.8478 179.899 74.7472 180.158 74.6185C180.427 74.4703 180.663 74.2822 180.865 74.0543L181.547 76.7921C181.114 77.0618 180.705 77.2682 180.321 77.4125C179.956 77.5686 179.621 77.6842 179.317 77.76ZM183.94 76.3159L182.45 70.3395L180.966 64.385L183.384 63.7821L184.362 67.9001L184.772 67.7976C184.667 66.7899 184.679 65.931 184.808 65.22C184.934 64.494 185.216 63.9068 185.653 63.4585C186.087 62.995 186.684 62.6684 187.445 62.4788C187.597 62.4409 187.758 62.4087 187.929 62.3822C188.115 62.3519 188.323 62.3406 188.551 62.3484L189.193 65.4112C188.927 65.3805 188.661 65.3818 188.395 65.4164C188.14 65.4314 187.906 65.4654 187.693 65.5183C187.1 65.6665 186.621 65.9474 186.256 66.3614C185.906 66.7716 185.664 67.2921 185.531 67.9237C185.409 68.5356 185.374 69.2383 185.427 70.0332L186.814 75.5995L183.94 76.3159ZM193.563 73.9165L190.59 61.9854L193.463 61.2687L196.438 73.2L193.563 73.9165ZM191.56 59.7564C190.982 59.9005 190.503 59.8907 190.123 59.727C189.754 59.5443 189.511 59.2172 189.394 58.7457C189.276 58.2743 189.34 57.8789 189.583 57.5597C189.838 57.2215 190.254 56.9804 190.832 56.8363C191.44 56.6846 191.927 56.6925 192.291 56.8601C192.656 57.0276 192.899 57.3546 193.021 57.8413C193.138 58.3128 193.07 58.7176 192.815 59.0558C192.571 59.375 192.153 59.6085 191.56 59.7564ZM206.585 70.9847C205.824 71.1748 205.134 71.1931 204.515 71.0409C203.892 70.873 203.336 70.5589 202.85 70.0985C202.379 69.6348 201.973 69.0411 201.631 68.3188L201.221 68.4213L202.085 71.7919L199.667 72.3948L198.206 66.5319L195.63 56.1974L198.503 55.4807L199.465 59.3361C199.556 59.7012 199.631 60.1022 199.692 60.5395C199.753 60.9767 199.802 61.4329 199.84 61.9082C199.873 62.3681 199.902 62.8377 199.924 63.3167L200.403 63.1973C200.419 62.4179 200.518 61.7147 200.701 61.0875C200.895 60.4414 201.219 59.8923 201.671 59.4402C202.124 58.988 202.738 58.6653 203.513 58.4719C204.501 58.2255 205.42 58.2792 206.267 58.6333C207.126 58.9684 207.87 59.5581 208.501 60.4025C209.127 61.2316 209.6 62.2849 209.919 63.5625C210.23 64.8096 210.303 65.9461 210.139 66.9727C209.99 67.9955 209.615 68.8563 209.014 69.5551C208.428 70.2506 207.618 70.7267 206.585 70.9847ZM205.081 68.8399C205.643 68.6995 206.097 68.4167 206.444 67.9909C206.79 67.5658 206.997 67.0374 207.066 66.4065C207.15 65.7717 207.093 65.0585 206.897 64.2677C206.707 63.5073 206.434 62.8646 206.077 62.3397C205.719 61.8149 205.294 61.4364 204.8 61.2042C204.306 60.972 203.763 60.9298 203.169 61.0777C202.774 61.1763 202.43 61.3509 202.138 61.6017C201.84 61.8372 201.605 62.1221 201.43 62.4566C201.251 62.7758 201.118 63.1159 201.03 63.477C200.943 63.8381 200.896 64.205 200.892 64.5775C200.9 64.9311 200.939 65.2524 201.012 65.5412L201.108 65.9291C201.203 66.3092 201.366 66.705 201.598 67.1158C201.825 67.5109 202.114 67.859 202.464 68.1594C202.813 68.4598 203.208 68.6845 203.649 68.8334C204.086 68.9667 204.564 68.9686 205.081 68.8399ZM218.033 68.13C216.665 68.4716 215.515 68.2652 214.584 67.5122C213.665 66.7396 212.968 65.4033 212.494 63.5019L210.856 56.9318L213.753 56.2094L215.311 62.4602C215.611 63.6617 216.017 64.5135 216.529 65.0156C217.043 65.5176 217.679 65.6737 218.44 65.4843C218.88 65.3746 219.242 65.1713 219.523 64.8749C219.801 64.5634 220.012 64.1796 220.157 63.7235C220.298 63.2522 220.371 62.7333 220.374 62.1669C220.394 61.5966 220.339 60.9883 220.211 60.342L218.863 54.9353L221.737 54.2186L223.488 61.2451L224.711 66.1498L222.339 66.7415L221.446 62.9659L221.035 63.0683C221.076 64.0757 220.988 64.9215 220.772 65.6058C220.57 66.2857 220.246 66.8349 219.801 67.2529C219.353 67.6559 218.763 67.9478 218.033 68.13ZM232.222 64.5676C230.96 64.8824 229.949 64.7791 229.19 64.2578C228.426 63.7213 227.865 62.7382 227.509 61.3086L226.082 55.5825L224.325 56.0205L223.802 53.7278L224.965 53.4377C225.407 53.3277 225.716 53.1778 225.895 52.9878C226.074 52.7979 226.143 52.5222 226.101 52.1611L225.942 50.3591L227.607 49.9438L228.268 52.5901L231.415 51.8052L232.013 54.2006L228.864 54.9855L230.241 60.5063C230.381 61.069 230.613 61.4474 230.936 61.6415C231.274 61.8318 231.709 61.8606 232.241 61.7278C232.53 61.6558 232.804 61.5552 233.063 61.4261C233.332 61.2781 233.568 61.09 233.77 60.862L234.452 63.5996C234.019 63.8693 233.61 64.0762 233.226 64.2204C232.861 64.376 232.527 64.4918 232.222 64.5676ZM236.846 63.124L233.871 51.1927L236.745 50.4761L239.72 62.4073L236.846 63.124ZM234.842 48.9637C234.264 49.1079 233.785 49.0981 233.405 48.9343C233.037 48.7516 232.794 48.4245 232.676 47.953C232.559 47.4816 232.621 47.0863 232.865 46.7671C233.12 46.4289 233.536 46.1878 234.114 46.0436C234.722 45.892 235.209 45.8999 235.574 46.0674C235.939 46.2349 236.182 46.562 236.303 47.0486C236.421 47.5201 236.351 47.925 236.097 48.2631C235.853 48.5823 235.435 48.8159 234.842 48.9637ZM248.315 60.579C247.144 60.871 246.051 60.8931 245.036 60.6453C244.018 60.3824 243.135 59.8516 242.387 59.0527C241.649 58.2349 241.111 57.1416 240.769 55.7728C240.42 54.3736 240.391 53.1533 240.68 52.1118C240.981 51.0514 241.523 50.1811 242.307 49.5012C243.09 48.8212 244.045 48.3409 245.17 48.0603C246.341 47.7683 247.434 47.7462 248.449 47.9939C249.463 48.2417 250.347 48.7726 251.099 49.5866C251.848 50.3854 252.394 51.4768 252.739 52.8608C253.088 54.26 253.119 55.4879 252.834 56.5446C252.548 57.6013 252.006 58.4714 251.207 59.1552C250.419 59.82 249.455 60.2946 248.315 60.579ZM247.883 58.3605C248.522 58.2013 249.026 57.9222 249.395 57.5232C249.76 57.1091 249.982 56.577 250.063 55.927C250.158 55.2732 250.104 54.5356 249.899 53.7143C249.683 52.8474 249.37 52.1421 248.959 51.5982C248.561 51.0353 248.084 50.6453 247.529 50.4283C246.99 50.2075 246.37 50.1842 245.671 50.3587C245.062 50.5104 244.568 50.7951 244.188 51.2131C243.803 51.6158 243.561 52.1365 243.462 52.7751C243.378 53.4099 243.442 54.1532 243.655 55.0049C243.988 56.3432 244.526 57.2997 245.266 57.8742C246.023 58.4449 246.895 58.607 247.883 58.3605ZM256.805 58.147L254.99 50.8696L253.83 46.2158L256.225 45.6185L257.067 49.2858L257.478 49.1834C257.467 48.233 257.564 47.4251 257.77 46.76C257.99 46.0911 258.346 45.542 258.837 45.1127C259.328 44.6834 259.946 44.3759 260.691 44.1901C262.044 43.8526 263.19 44.0757 264.128 44.8595C265.082 45.6394 265.809 47.0331 266.309 49.0406L267.891 55.3827L264.993 56.1051L263.486 50.0596C263.164 48.7669 262.731 47.8732 262.188 47.3786C261.657 46.8651 261.011 46.7031 260.25 46.8927C259.611 47.052 259.123 47.392 258.784 47.9126C258.442 48.4179 258.232 49.0356 258.156 49.7654C258.09 50.4763 258.149 51.229 258.331 52.0237L259.679 57.4304L256.805 58.147ZM275.632 53.7673C274.826 53.9683 274.076 54.0667 273.38 54.0624C272.703 54.0696 272.101 53.9856 271.573 53.8104C271.04 53.62 270.587 53.3536 270.21 53.0112C269.83 52.6536 269.546 52.2238 269.356 51.7219L271.404 50.3147C271.533 50.7026 271.774 51.0221 272.127 51.2732C272.476 51.5091 272.917 51.6577 273.449 51.7188C273.982 51.7799 274.59 51.7252 275.275 51.5546C276.035 51.365 276.592 51.105 276.946 50.7744C277.311 50.4249 277.438 50.0296 277.328 49.5886C277.249 49.2692 277.072 49.0467 276.798 48.9211C276.521 48.7802 276.146 48.704 275.675 48.6922C275.215 48.6615 274.666 48.6612 274.027 48.6912C273.434 48.7099 272.83 48.7151 272.215 48.7072C271.61 48.6802 271.032 48.598 270.481 48.4609C269.941 48.3047 269.467 48.0515 269.056 47.7015C268.658 47.3325 268.374 46.8135 268.208 46.1443C268.025 45.4143 268.058 44.7357 268.306 44.1086C268.569 43.4777 269.027 42.9192 269.681 42.4329C270.35 41.943 271.21 41.5671 272.259 41.3055C273.248 41.059 274.133 40.9836 274.916 41.0791C275.714 41.1708 276.406 41.4183 276.991 41.8217C277.573 42.2098 278.011 42.7385 278.307 43.4078L276.122 44.7522C275.971 44.3377 275.737 44.0164 275.422 43.788C275.103 43.5445 274.719 43.398 274.27 43.3483C273.822 43.2986 273.324 43.3419 272.776 43.4784C272.077 43.6529 271.56 43.911 271.225 44.253C270.89 44.5949 270.774 44.9712 270.877 45.3819C270.96 45.7164 271.148 45.9522 271.441 46.0893C271.748 46.2225 272.138 46.295 272.609 46.3067C273.096 46.3146 273.643 46.3074 274.251 46.285C274.89 46.2549 275.512 46.2534 276.116 46.2804C276.732 46.2884 277.3 46.3648 277.821 46.5096C278.341 46.6544 278.791 46.9055 279.171 47.2632C279.547 47.6055 279.817 48.1037 279.98 48.7577C280.177 49.5486 280.133 50.2784 279.848 50.9473C279.558 51.601 279.054 52.1709 278.335 52.6571C277.628 53.1242 276.727 53.4943 275.632 53.7673Z" fill="#2F0FD1"/>
</g>
<path d="M285.622 231.574L32.9931 294.569C14.7962 299.107 3.72265 317.538 8.25965 335.737C12.7967 353.936 31.2261 365.011 49.4231 360.474L302.052 297.479C320.249 292.941 331.323 274.51 326.786 256.311C322.249 238.112 303.819 227.037 285.622 231.574Z" fill="#E2F1FE"/>
<mask id="mask1_165_11930" style="mask-type:luminance" maskUnits="userSpaceOnUse" x="32" y="244" width="271" height="104">
<path d="M273.318 245.402L50.282 301.017C37.6841 304.158 30.0178 316.919 33.1588 329.518C36.2998 342.118 49.0587 349.785 61.6566 346.643L284.692 291.028C297.29 287.886 304.956 275.126 301.815 262.527C298.674 249.927 285.916 242.26 273.318 245.402Z" fill="white"/>
</mask>
<g mask="url(#mask1_165_11930)">
<path d="M93.6557 322.824C92.667 323.07 91.7606 323.191 90.9352 323.187C90.1143 323.198 89.381 323.074 88.7351 322.815C88.1004 322.537 87.5662 322.145 87.1333 321.639C86.6964 321.118 86.3718 320.464 86.1596 319.677L88.5268 318.287C88.6933 319.021 88.997 319.591 89.4378 319.998C89.8747 320.39 90.418 320.626 91.0684 320.706C91.7332 320.783 92.4534 320.725 93.2292 320.531C93.9743 320.345 94.5751 320.098 95.0316 319.791C95.503 319.479 95.8302 319.14 96.0131 318.771C96.192 318.387 96.2318 317.997 96.1332 317.601C96.0235 317.161 95.7767 316.851 95.3927 316.672C95.0048 316.478 94.5163 316.365 93.9273 316.334C93.35 316.285 92.6996 316.269 91.9774 316.287C91.1905 316.306 90.4154 316.306 89.6513 316.286C88.9023 316.263 88.1977 316.156 87.5362 315.965C86.8747 315.775 86.3046 315.465 85.8259 315.035C85.359 314.586 85.0247 313.959 84.8235 313.153C84.5963 312.24 84.6289 311.4 84.9221 310.632C85.2121 309.849 85.7443 309.167 86.5201 308.586C87.3076 307.986 88.3094 307.534 89.5259 307.231C90.7268 306.931 91.822 306.852 92.81 306.993C93.7947 307.119 94.6228 307.462 95.2954 308.021C95.968 308.58 96.4349 309.32 96.6968 310.24L94.2558 311.624C94.1304 311.123 93.9384 310.71 93.6805 310.387C93.4336 310.044 93.128 309.79 92.763 309.622C92.394 309.439 91.982 309.34 91.5255 309.325C91.0847 309.305 90.5982 309.362 90.066 309.495C89.4424 309.651 88.916 309.871 88.4863 310.156C88.0717 310.436 87.7811 310.76 87.6132 311.124C87.4422 311.474 87.4056 311.846 87.5042 312.242C87.6256 312.729 87.9045 313.071 88.342 313.269C88.7789 313.467 89.3163 313.583 89.955 313.618C90.6054 313.633 91.308 313.636 92.0649 313.625C92.7525 313.599 93.4486 313.603 94.1513 313.637C94.8703 313.669 95.5501 313.773 96.1926 313.953C96.8346 314.132 97.3916 314.453 97.8624 314.917C98.345 315.362 98.6885 315.996 98.8935 316.816C99.1136 317.699 99.0712 318.533 98.7662 319.32C98.4619 320.107 97.8833 320.8 97.0318 321.4C96.1796 322 95.0544 322.475 93.6557 322.824ZM104.86 319.715L98.8524 308.54L101.863 307.789L106.151 316.921L106.561 316.819L106.334 306.674L109.847 305.798L114.477 314.845L114.887 314.743L114.34 304.678L117.283 303.944L117.224 316.632L113.232 317.627L108.796 308.58L108.454 308.666L108.829 318.725L104.86 319.715ZM122.76 315.251L119.786 303.32L122.66 302.603L125.635 314.535L122.76 315.251ZM120.757 301.091C120.179 301.235 119.699 301.225 119.32 301.061C118.951 300.879 118.708 300.552 118.591 300.08C118.473 299.609 118.536 299.214 118.779 298.894C119.035 298.556 119.451 298.315 120.029 298.171C120.637 298.019 121.124 298.027 121.488 298.195C121.853 298.362 122.096 298.689 122.217 299.176C122.335 299.647 122.266 300.052 122.011 300.39C121.768 300.709 121.35 300.943 120.757 301.091ZM130.233 313.388L128.264 305.494L126.28 305.989L125.74 303.822L128.905 303.203L128.803 302.792C128.297 302.773 127.852 302.674 127.468 302.495C127.081 302.301 126.765 302.04 126.522 301.713C126.294 301.382 126.128 301.004 126.021 300.578C125.858 299.923 125.878 299.321 126.079 298.77C126.281 298.219 126.639 297.742 127.152 297.339C127.662 296.922 128.312 296.614 129.103 296.417C129.757 296.254 130.37 296.19 130.944 296.224C131.534 296.255 132.026 296.35 132.421 296.51L132.853 299.214C132.45 299.023 132.009 298.907 131.53 298.865C131.048 298.807 130.601 298.83 130.19 298.932C129.719 299.05 129.365 299.283 129.129 299.633C128.889 299.967 128.844 300.431 128.992 301.025C129.087 301.405 129.233 301.699 129.43 301.908C129.624 302.102 129.844 302.241 130.091 302.325C130.35 302.39 130.593 302.426 130.821 302.434L133.604 301.74L134.172 304.022L131.071 304.795L133.038 312.688L130.233 313.388ZM143.174 310.451C141.912 310.766 140.901 310.663 140.141 310.142C139.378 309.605 138.817 308.622 138.461 307.192L137.033 301.466L135.277 301.904L134.754 299.612L135.917 299.321C136.358 299.212 136.668 299.061 136.847 298.872C137.026 298.682 137.095 298.406 137.053 298.045L136.894 296.243L138.559 295.828L139.219 298.474L142.367 297.689L142.964 300.085L139.816 300.869L141.192 306.39C141.333 306.953 141.565 307.332 141.888 307.525C142.225 307.716 142.661 307.744 143.193 307.612C143.482 307.54 143.756 307.439 144.015 307.31C144.284 307.162 144.52 306.974 144.722 306.746L145.404 309.483C144.971 309.753 144.562 309.96 144.178 310.105C143.813 310.26 143.479 310.376 143.174 310.451ZM154.305 307.385L150.551 292.329L153.448 291.606L157.202 306.663L154.305 307.385ZM156.175 306.919L155.584 304.546L164.959 302.209L165.551 304.581L156.175 306.919ZM154.543 300.371L153.997 298.182L162.254 296.122L162.8 298.312L154.543 300.371ZM153.013 294.235L152.422 291.862L161.751 289.536L162.342 291.909L153.013 294.235ZM171.313 303.459C170.659 303.622 170.043 303.647 169.466 303.532C168.884 303.402 168.379 303.124 167.95 302.698C167.536 302.269 167.235 301.681 167.05 300.936C166.895 300.313 166.876 299.752 166.994 299.254C167.127 298.752 167.395 298.306 167.799 297.914C168.198 297.508 168.725 297.126 169.379 296.769C170.029 296.397 170.809 296.024 171.717 295.653C172.215 295.448 172.614 295.268 172.915 295.112C173.231 294.952 173.446 294.778 173.559 294.588C173.67 294.383 173.685 294.12 173.606 293.801C173.488 293.329 173.22 292.968 172.803 292.717C172.396 292.447 171.828 292.402 171.097 292.585C170.657 292.694 170.25 292.877 169.877 293.131C169.52 293.382 169.238 293.711 169.033 294.117C168.824 294.509 168.732 294.983 168.758 295.542L165.982 295.387C165.997 294.737 166.11 294.151 166.319 293.631C166.524 293.095 166.823 292.608 167.215 292.171C167.607 291.734 168.088 291.364 168.658 291.06C169.229 290.757 169.879 290.514 170.609 290.332C171.719 290.055 172.677 290.01 173.482 290.197C174.284 290.369 174.955 290.791 175.494 291.464C176.03 292.122 176.446 293.044 176.742 294.23L177.299 296.466C177.428 296.983 177.57 297.521 177.726 298.08C177.892 298.62 178.061 299.168 178.232 299.723C178.414 300.259 178.6 300.778 178.789 301.28L176.212 301.923C176.045 301.512 175.878 301.069 175.711 300.594C175.544 300.118 175.383 299.633 175.227 299.139L174.862 299.23C174.794 299.861 174.622 300.469 174.348 301.055C174.07 301.625 173.678 302.126 173.173 302.559C172.678 302.973 172.059 303.273 171.313 303.459ZM171.925 301.053C172.229 300.978 172.52 300.848 172.797 300.666C173.09 300.48 173.362 300.242 173.614 299.953C173.864 299.665 174.081 299.336 174.264 298.967C174.443 298.584 174.57 298.156 174.647 297.685L174.095 295.666L174.665 295.62C174.46 295.898 174.182 296.145 173.832 296.361C173.482 296.578 173.102 296.77 172.692 296.936C172.296 297.099 171.897 297.28 171.494 297.478C171.102 297.656 170.756 297.855 170.456 298.075C170.151 298.281 169.931 298.53 169.794 298.822C169.653 299.099 169.634 299.443 169.736 299.854C169.865 300.371 170.133 300.733 170.539 300.938C170.946 301.143 171.408 301.182 171.925 301.053ZM182.078 300.46L180.588 294.483L179.104 288.528L181.522 287.925L182.5 292.043L182.911 291.941C182.805 290.934 182.817 290.074 182.946 289.364C183.072 288.637 183.354 288.05 183.791 287.602C184.225 287.138 184.822 286.812 185.582 286.622C185.734 286.585 185.896 286.552 186.067 286.526C186.253 286.495 186.46 286.484 186.688 286.492L187.331 289.554C187.065 289.524 186.799 289.525 186.532 289.559C186.278 289.574 186.044 289.608 185.831 289.662C185.238 289.81 184.759 290.091 184.394 290.505C184.044 290.915 183.802 291.436 183.669 292.067C183.547 292.679 183.512 293.382 183.565 294.177L184.953 299.743L182.078 300.46ZM192.157 297.947L190.343 290.669L189.183 286.015L191.578 285.418L192.42 289.085L192.831 288.983C192.82 288.033 192.917 287.225 193.123 286.559C193.343 285.89 193.699 285.341 194.19 284.912C194.681 284.483 195.298 284.175 196.044 283.989C197.397 283.652 198.543 283.875 199.481 284.659C200.435 285.438 201.162 286.833 201.662 288.84L203.244 295.182L200.346 295.904L198.839 289.859C198.517 288.566 198.084 287.673 197.541 287.178C197.009 286.664 196.363 286.502 195.603 286.692C194.964 286.851 194.476 287.191 194.137 287.712C193.795 288.217 193.585 288.835 193.509 289.565C193.443 290.276 193.502 291.028 193.684 291.823L195.032 297.229L192.157 297.947ZM206.737 294.311L203.762 282.38L206.636 281.663L209.611 293.594L206.737 294.311ZM204.733 280.151C204.155 280.295 203.676 280.285 203.296 280.122C202.928 279.939 202.685 279.611 202.567 279.14C202.45 278.668 202.512 278.273 202.756 277.954C203.011 277.616 203.427 277.375 204.005 277.231C204.613 277.079 205.1 277.087 205.465 277.254C205.829 277.422 206.073 277.749 206.194 278.235C206.311 278.707 206.242 279.112 205.988 279.45C205.744 279.77 205.326 280.003 204.733 280.151ZM213.296 292.675L211.482 285.398L210.322 280.744L212.717 280.147L213.559 283.814L213.969 283.712C213.959 282.761 214.056 281.953 214.262 281.288C214.482 280.619 214.838 280.07 215.329 279.641C215.82 279.212 216.437 278.904 217.182 278.718C218.536 278.381 219.682 278.604 220.62 279.387C221.574 280.168 222.301 281.562 222.801 283.569L224.382 289.911L221.485 290.633L219.978 284.588C219.656 283.295 219.223 282.402 218.68 281.907C218.148 281.393 217.502 281.231 216.742 281.421C216.103 281.58 215.615 281.92 215.276 282.441C214.934 282.946 214.724 283.564 214.647 284.294C214.582 285.005 214.641 285.757 214.822 286.552L216.17 291.959L213.296 292.675ZM233.53 291.992C232.237 292.314 231.148 292.481 230.263 292.491C229.392 292.498 228.71 292.353 228.216 292.057C227.722 291.76 227.403 291.322 227.259 290.745C227.084 290.045 227.216 289.407 227.653 288.829C228.102 288.232 228.861 287.744 229.929 287.364L229.815 286.909C228.998 287.129 228.354 287.2 227.882 287.124C227.408 287.033 227.117 286.773 227.01 286.348C226.908 285.937 227.022 285.521 227.353 285.099C227.699 284.674 228.333 284.233 229.253 283.778L229.139 283.321C228.2 283.507 227.406 283.398 226.756 282.995C226.103 282.576 225.668 281.933 225.452 281.067C225.258 280.291 225.301 279.553 225.578 278.854C225.857 278.154 226.364 277.535 227.102 276.996C227.851 276.437 228.819 276.01 230.005 275.715L235.913 274.242L236.482 276.523L232.604 276.908L232.73 277.41C233.71 277.327 234.469 277.421 235.004 277.691C235.555 277.957 235.912 278.418 236.075 279.071C236.23 279.695 236.172 280.3 235.897 280.885C235.619 281.455 235.135 281.972 234.443 282.435C233.762 282.88 232.889 283.234 231.825 283.499C231.627 283.549 231.412 283.595 231.18 283.636C230.948 283.678 230.582 283.729 230.08 283.789C229.817 284.097 229.61 284.367 229.458 284.599C229.302 284.815 229.242 285 229.28 285.152C229.311 285.273 229.414 285.361 229.589 285.414C229.76 285.452 229.971 285.456 230.221 285.426C230.472 285.396 230.712 285.352 230.94 285.295L234.11 284.504C234.414 284.429 234.808 284.355 235.291 284.283C235.789 284.207 236.298 284.209 236.819 284.29C237.355 284.366 237.836 284.578 238.261 284.924C238.702 285.266 239.019 285.825 239.212 286.601C239.428 287.468 239.354 288.238 238.988 288.91C238.642 289.594 238.007 290.188 237.083 290.694C236.174 291.195 234.99 291.628 233.53 291.992ZM233.2 289.602C234.143 289.367 234.883 289.126 235.419 288.88C235.955 288.633 236.315 288.357 236.497 288.053C236.684 287.764 236.731 287.438 236.641 287.072C236.557 286.738 236.417 286.498 236.219 286.353C236.018 286.194 235.786 286.107 235.523 286.091C235.276 286.072 235.03 286.085 234.782 286.13C234.535 286.176 234.328 286.22 234.16 286.261L231.355 286.961C230.652 287.249 230.185 287.583 229.958 287.963C229.744 288.339 229.683 288.71 229.774 289.075C229.865 289.441 230.055 289.684 230.344 289.806C230.637 289.943 231.019 289.985 231.49 289.932C231.977 289.875 232.547 289.765 233.2 289.602ZM231.364 281.942C232.154 281.745 232.71 281.413 233.029 280.946C233.345 280.463 233.427 279.918 233.276 279.309C233.112 278.655 232.767 278.176 232.239 277.872C231.722 277.548 231.068 277.485 230.278 277.682C229.487 277.879 228.922 278.239 228.584 278.759C228.26 279.276 228.178 279.854 228.337 280.492C228.439 280.903 228.621 281.246 228.884 281.519C229.158 281.774 229.499 281.947 229.91 282.038C230.332 282.111 230.816 282.079 231.364 281.942ZM246.602 284.685C245.796 284.887 245.046 284.985 244.35 284.981C243.673 284.988 243.071 284.904 242.543 284.728C242.01 284.538 241.557 284.271 241.18 283.929C240.8 283.572 240.516 283.141 240.326 282.64L242.373 281.232C242.503 281.62 242.744 281.94 243.097 282.191C243.447 282.427 243.888 282.576 244.42 282.637C244.952 282.698 245.56 282.643 246.245 282.473C247.005 282.283 247.562 282.023 247.916 281.692C248.281 281.343 248.408 280.948 248.298 280.506C248.219 280.187 248.042 279.965 247.769 279.839C247.491 279.698 247.117 279.622 246.646 279.61C246.185 279.579 245.636 279.579 244.997 279.609C244.404 279.628 243.8 279.633 243.184 279.625C242.58 279.598 242.003 279.516 241.451 279.379C240.911 279.223 240.437 278.969 240.026 278.619C239.627 278.25 239.345 277.731 239.178 277.062C238.996 276.332 239.029 275.654 239.276 275.027C239.539 274.396 239.997 273.837 240.651 273.351C241.32 272.861 242.18 272.485 243.229 272.224C244.218 271.977 245.103 271.902 245.886 271.997C246.684 272.088 247.376 272.337 247.961 272.74C248.543 273.128 248.981 273.657 249.277 274.326L247.093 275.67C246.941 275.256 246.707 274.934 246.392 274.706C246.073 274.462 245.689 274.316 245.24 274.266C244.792 274.216 244.294 274.26 243.747 274.396C243.047 274.571 242.53 274.829 242.195 275.171C241.86 275.513 241.744 275.889 241.846 276.3C241.93 276.635 242.118 276.87 242.411 277.007C242.718 277.14 243.108 277.213 243.58 277.224C244.066 277.232 244.613 277.225 245.221 277.203C245.86 277.173 246.482 277.172 247.086 277.198C247.701 277.206 248.27 277.283 248.791 277.428C249.311 277.572 249.762 277.823 250.141 278.181C250.517 278.523 250.787 279.022 250.95 279.675C251.147 280.466 251.103 281.197 250.818 281.865C250.528 282.519 250.024 283.089 249.305 283.575C248.598 284.042 247.697 284.412 246.602 284.685Z" fill="#1082E4"/>
</g>
<path d="M319.443 147.98H12.0625C7.73461 147.98 4.2262 151.489 4.2262 155.818V213.29C4.2262 217.619 7.73461 221.127 12.0625 221.127H319.443C323.771 221.127 327.279 217.619 327.279 213.29V155.818C327.279 151.489 323.771 147.98 319.443 147.98Z" stroke="#8CC9FD" stroke-width="8"/>
<mask id="mask2_165_11930" style="mask-type:luminance" maskUnits="userSpaceOnUse" x="1" y="145" width="165" height="79">
<path d="M1.61401 155.817C1.61401 150.045 6.29189 145.367 12.0624 145.367H165.752V223.739H12.0624C6.29189 223.739 1.61401 219.061 1.61401 213.289V155.817Z" fill="white"/>
</mask>
<g mask="url(#mask2_165_11930)">
<path d="M-3.61011 155.817C-3.61011 147.16 3.40672 140.143 12.0624 140.143H165.753V150.592H12.0624C9.17718 150.592 6.83825 152.932 6.83825 155.817H-3.61011ZM165.753 228.964H12.0624C3.40672 228.964 -3.61011 221.946 -3.61011 213.289H6.83825C6.83825 216.175 9.17718 218.514 12.0624 218.514H165.753V228.964ZM12.0624 228.964C3.40672 228.964 -3.61011 221.946 -3.61011 213.289V155.817C-3.61011 147.16 3.40672 140.143 12.0624 140.143V150.592C9.17718 150.592 6.83825 152.932 6.83825 155.817V213.289C6.83825 216.175 9.17718 218.514 12.0624 218.514V228.964Z" fill="#6546FF"/>
</g>
<path d="M58.1636 163.727H26.8185C23.9333 163.727 21.5944 166.066 21.5944 168.951V200.3C21.5944 203.186 23.9333 205.525 26.8185 205.525H58.1636C61.0488 205.525 63.3877 203.186 63.3877 200.3V168.951C63.3877 166.066 61.0488 163.727 58.1636 163.727Z" fill="#F7F9FD"/>
<path d="M57.5106 163.727H26.1656C23.2803 163.727 20.9414 166.066 20.9414 168.951V200.3C20.9414 203.186 23.2803 205.525 26.1656 205.525H57.5106C60.3958 205.525 62.7348 203.186 62.7348 200.3V168.951C62.7348 166.066 60.3958 163.727 57.5106 163.727Z" fill="#F7F9FD"/>
<path d="M38.21 195.208C40.2126 195.208 41.8378 193.582 41.8378 191.58V187.951H38.21C36.2073 187.951 34.582 189.577 34.582 191.58C34.582 193.582 36.2073 195.208 38.21 195.208Z" fill="#0ACF83"/>
<path d="M34.582 184.325C34.582 182.323 36.2073 180.697 38.21 180.697H41.8378V187.954H38.21C36.2073 187.954 34.582 186.328 34.582 184.325Z" fill="#A259FF"/>
<path d="M34.582 177.068C34.582 175.065 36.2073 173.439 38.21 173.439H41.8378V180.697H38.21C36.2073 180.697 34.582 179.071 34.582 177.068Z" fill="#F24E1E"/>
<path d="M41.838 173.439H45.4659C47.4685 173.439 49.0938 175.065 49.0938 177.068C49.0938 179.071 47.4685 180.697 45.4659 180.697H41.838V173.439Z" fill="#FF7262"/>
<path d="M49.0938 184.325C49.0938 186.328 47.4685 187.954 45.4659 187.954C43.4633 187.954 41.838 186.328 41.838 184.325C41.838 182.323 43.4633 180.697 45.4659 180.697C47.4685 180.697 49.0938 182.323 49.0938 184.325Z" fill="#1ABCFE"/>
<path d="M107.14 163.727H75.7948C72.9096 163.727 70.5707 166.066 70.5707 168.951V200.3C70.5707 203.186 72.9096 205.525 75.7948 205.525H107.14C110.025 205.525 112.364 203.186 112.364 200.3V168.951C112.364 166.066 110.025 163.727 107.14 163.727Z" fill="#F7F9FD"/>
<path d="M84.8726 191.638L83.4098 175.18H99.5264L98.0636 191.638L91.4681 193.466L84.8726 191.638ZM87.0275 185.629L87.3083 188.803L91.4681 189.959L95.6017 188.816L96.1568 182.618H89.2347L89.509 179.464L91.4681 179.392H91.8338L93.8973 179.464L94.0867 181.6H96.1111L95.7258 177.283H87.7067L87.0537 184.63H93.93L93.6949 187.242L91.4681 187.856L89.2217 187.249L89.0519 185.629H87.0275Z" fill="#0D0516"/>
<path d="M206.399 163.727H175.054C172.169 163.727 169.83 166.066 169.83 168.951V200.3C169.83 203.186 172.169 205.525 175.054 205.525H206.399C209.284 205.525 211.623 203.186 211.623 200.3V168.951C211.623 166.066 209.284 163.727 206.399 163.727Z" fill="#F7F9FD"/>
<path d="M187.099 195.208C189.101 195.208 190.727 193.582 190.727 191.58V187.951H187.099C185.096 187.951 183.471 189.577 183.471 191.58C183.471 193.582 185.096 195.208 187.099 195.208Z" fill="#0ACF83"/>
<path d="M183.471 184.325C183.471 182.323 185.096 180.697 187.099 180.697H190.727V187.954H187.099C185.096 187.954 183.471 186.328 183.471 184.325Z" fill="#A259FF"/>
<path d="M183.471 177.068C183.471 175.065 185.096 173.439 187.099 173.439H190.727V180.697H187.099C185.096 180.697 183.471 179.071 183.471 177.068Z" fill="#F24E1E"/>
<path d="M190.727 173.439H194.355C196.358 173.439 197.982 175.065 197.982 177.068C197.982 179.071 196.358 180.697 194.355 180.697H190.727V173.439Z" fill="#FF7262"/>
<path d="M197.982 184.325C197.982 186.328 196.358 187.954 194.355 187.954C192.352 187.954 190.727 186.328 190.727 184.325C190.727 182.323 192.352 180.697 194.355 180.697C196.358 180.697 197.982 182.323 197.982 184.325Z" fill="#1ABCFE"/>
<path d="M156.77 163.727H125.424C122.539 163.727 120.2 166.066 120.2 168.951V200.3C120.2 203.186 122.539 205.525 125.424 205.525H156.77C159.655 205.525 161.994 203.186 161.994 200.3V168.951C161.994 166.066 159.655 163.727 156.77 163.727Z" fill="#F7F9FD"/>
<mask id="mask3_165_11930" style="mask-type:luminance" maskUnits="userSpaceOnUse" x="131" y="174" width="20" height="21">
<path d="M150.892 174.527H131.955V194.12H150.892V174.527Z" fill="white"/>
</mask>
<g mask="url(#mask3_165_11930)">
<mask id="mask4_165_11930" style="mask-type:luminance" maskUnits="userSpaceOnUse" x="131" y="174" width="20" height="21">
<path d="M150.892 174.527H131.955V194.12H150.892V174.527Z" fill="white"/>
</mask>
<g mask="url(#mask4_165_11930)">
<path d="M143.225 182.82L150.275 174.527H148.605L142.483 181.728L137.594 174.527H131.955L139.348 185.415L131.955 194.11H133.626L140.09 186.507L145.253 194.11H150.892L143.225 182.82ZM140.937 185.511L140.188 184.427L134.228 175.8H136.794L141.604 182.762L142.353 183.846L148.605 192.896H146.04L140.937 185.511Z" fill="#0D0516"/>
</g>
</g>
<path d="M256.029 163.727H224.684C221.799 163.727 219.46 166.066 219.46 168.951V200.3C219.46 203.186 221.799 205.525 224.684 205.525H256.029C258.914 205.525 261.253 203.186 261.253 200.3V168.951C261.253 166.066 258.914 163.727 256.029 163.727Z" fill="#F7F9FD"/>
<path d="M233.761 191.638L232.299 175.18H248.415L246.953 191.638L240.357 193.466L233.761 191.638ZM235.916 185.629L236.197 188.803L240.357 189.959L244.491 188.816L245.046 182.618H238.124L238.398 179.464L240.357 179.392H240.723L242.786 179.464L242.976 181.6H245L244.615 177.283H236.596L235.943 184.63H242.819L242.584 187.242L240.357 187.856L238.111 187.249L237.941 185.629H235.916Z" fill="#0D0516"/>
<path d="M305.658 163.727H274.313C271.428 163.727 269.089 166.066 269.089 168.951V200.3C269.089 203.186 271.428 205.525 274.313 205.525H305.658C308.544 205.525 310.883 203.186 310.883 200.3V168.951C310.883 166.066 308.544 163.727 305.658 163.727Z" fill="#F7F9FD"/>
<mask id="mask5_165_11930" style="mask-type:luminance" maskUnits="userSpaceOnUse" x="280" y="174" width="20" height="21">
<path d="M299.781 174.527H280.844V194.12H299.781V174.527Z" fill="white"/>
</mask>
<g mask="url(#mask5_165_11930)">
<mask id="mask6_165_11930" style="mask-type:luminance" maskUnits="userSpaceOnUse" x="280" y="174" width="20" height="21">
<path d="M299.781 174.527H280.844V194.12H299.781V174.527Z" fill="white"/>
</mask>
<g mask="url(#mask6_165_11930)">
<path d="M292.114 182.82L299.164 174.527H297.494L291.372 181.728L286.483 174.527H280.844L288.237 185.415L280.844 194.11H282.515L288.979 186.507L294.142 194.11H299.781L292.114 182.82ZM289.826 185.511L289.077 184.427L283.117 175.8H285.683L290.493 182.762L291.242 183.846L297.494 192.896H294.929L289.826 185.511Z" fill="#0D0516"/>
</g>
</g>
<path d="M289.986 136.949C302.969 136.949 313.495 126.422 313.495 113.437C313.495 100.452 302.969 89.9258 289.986 89.9258C277.002 89.9258 266.477 100.452 266.477 113.437C266.477 126.422 277.002 136.949 289.986 136.949Z" stroke="#8CC9FD" stroke-width="8"/>
<path d="M37.2668 280.63C50.2504 280.63 60.7756 270.104 60.7756 257.119C60.7756 244.134 50.2504 233.607 37.2668 233.607C24.2833 233.607 13.7581 244.134 13.7581 257.119C13.7581 270.104 24.2833 280.63 37.2668 280.63Z" stroke="#6546FF" stroke-width="8"/>
</g>
<defs>
<clipPath id="clip0_165_11930">
<rect width="335" height="369" fill="white"/>
</clipPath>
</defs>
</svg>
