<svg width="40" height="41" viewBox="0 0 40 41" fill="none" xmlns="http://www.w3.org/2000/svg">
<path d="M15.8751 21.25C15.875 21.8153 15.6925 22.3654 15.3547 22.8186C15.0169 23.2718 14.5418 23.6038 14.0001 23.7653V28.75C14.0001 28.9489 13.9211 29.1397 13.7804 29.2803C13.6398 29.421 13.449 29.5 13.2501 29.5C13.0512 29.5 12.8604 29.421 12.7198 29.2803C12.5791 29.1397 12.5001 28.9489 12.5001 28.75V23.7653C11.9586 23.6037 11.4837 23.2715 11.146 22.8184C10.8084 22.3652 10.626 21.8151 10.626 21.25C10.626 20.6849 10.8084 20.1348 11.146 19.6816C11.4837 19.2285 11.9586 18.8963 12.5001 18.7347V12.25C12.5001 12.0511 12.5791 11.8603 12.7198 11.7197C12.8604 11.579 13.0512 11.5 13.2501 11.5C13.449 11.5 13.6398 11.579 13.7804 11.7197C13.9211 11.8603 14.0001 12.0511 14.0001 12.25V18.7347C14.5418 18.8962 15.0169 19.2282 15.3547 19.6814C15.6925 20.1346 15.875 20.6847 15.8751 21.25ZM20.7501 14.2347V12.25C20.7501 12.0511 20.6711 11.8603 20.5304 11.7197C20.3898 11.579 20.199 11.5 20.0001 11.5C19.8012 11.5 19.6104 11.579 19.4698 11.7197C19.3291 11.8603 19.2501 12.0511 19.2501 12.25V14.2347C18.7086 14.3963 18.2337 14.7285 17.896 15.1816C17.5584 15.6348 17.376 16.1849 17.376 16.75C17.376 17.3151 17.5584 17.8652 17.896 18.3184C18.2337 18.7715 18.7086 19.1037 19.2501 19.2653V28.75C19.2501 28.9489 19.3291 29.1397 19.4698 29.2803C19.6104 29.421 19.8012 29.5 20.0001 29.5C20.199 29.5 20.3898 29.421 20.5304 29.2803C20.6711 29.1397 20.7501 28.9489 20.7501 28.75V19.2653C21.2916 19.1037 21.7665 18.7715 22.1042 18.3184C22.4418 17.8652 22.6242 17.3151 22.6242 16.75C22.6242 16.1849 22.4418 15.6348 22.1042 15.1816C21.7665 14.7285 21.2916 14.3963 20.7501 14.2347ZM27.5001 21.7347V12.25C27.5001 12.0511 27.4211 11.8603 27.2804 11.7197C27.1398 11.579 26.949 11.5 26.7501 11.5C26.5512 11.5 26.3604 11.579 26.2198 11.7197C26.0791 11.8603 26.0001 12.0511 26.0001 12.25V21.7347C25.4586 21.8963 24.9837 22.2285 24.646 22.6816C24.3084 23.1348 24.126 23.6849 24.126 24.25C24.126 24.8151 24.3084 25.3652 24.646 25.8184C24.9837 26.2715 25.4586 26.6037 26.0001 26.7653V28.75C26.0001 28.9489 26.0791 29.1397 26.2198 29.2803C26.3604 29.421 26.5512 29.5 26.7501 29.5C26.949 29.5 27.1398 29.421 27.2804 29.2803C27.4211 29.1397 27.5001 28.9489 27.5001 28.75V26.7653C28.0416 26.6037 28.5165 26.2715 28.8542 25.8184C29.1918 25.3652 29.3742 24.8151 29.3742 24.25C29.3742 23.6849 29.1918 23.1348 28.8542 22.6816C28.5165 22.2285 28.0416 21.8963 27.5001 21.7347Z" fill="white"/>
</svg>
