<svg width="22" height="22" viewBox="0 0 22 22" fill="none" xmlns="http://www.w3.org/2000/svg">
<path d="M18.5625 6.18675H15.5478C15.5813 6.15839 15.6157 6.13089 15.6484 6.10081C15.9094 5.86893 16.1197 5.58569 16.2662 5.26881C16.4128 4.95192 16.4924 4.60821 16.5 4.25917C16.5113 3.87733 16.4444 3.4972 16.3035 3.14214C16.1626 2.78708 15.9505 2.46457 15.6805 2.1944C15.4104 1.92424 15.0879 1.71213 14.7329 1.5711C14.3779 1.43006 13.9978 1.36307 13.6159 1.37425C13.2667 1.38177 12.9229 1.46129 12.6058 1.60783C12.2888 1.75437 12.0054 1.96478 11.7734 2.22589C11.4524 2.59791 11.1915 3.01775 11 3.47026C10.8085 3.01775 10.5476 2.59791 10.2266 2.22589C9.99459 1.96478 9.71121 1.75437 9.39417 1.60783C9.07713 1.46129 8.73325 1.38177 8.38406 1.37425C8.00222 1.36307 7.62211 1.43006 7.26709 1.5711C6.91207 1.71213 6.58962 1.92424 6.31954 2.1944C6.04946 2.46457 5.83745 2.78708 5.69652 3.14214C5.55558 3.4972 5.48871 3.87733 5.5 4.25917C5.50764 4.60821 5.58722 4.95192 5.73375 5.26881C5.88029 5.58569 6.09064 5.86893 6.35164 6.10081C6.3843 6.12917 6.41867 6.15667 6.45219 6.18675H3.4375C3.07283 6.18675 2.72309 6.33161 2.46523 6.58948C2.20737 6.84734 2.0625 7.19707 2.0625 7.56175V10.3117C2.0625 10.6764 2.20737 11.0262 2.46523 11.284C2.72309 11.5419 3.07283 11.6867 3.4375 11.6867V17.1867C3.4375 17.5514 3.58237 17.9012 3.84023 18.159C4.09809 18.4169 4.44783 18.5617 4.8125 18.5617H9.96875C10.0599 18.5617 10.1474 18.5255 10.2118 18.4611C10.2763 18.3966 10.3125 18.3092 10.3125 18.218V10.3117H3.4375V7.56175H10.3125V10.3117H11.6875V7.56175H18.5625V10.3117H11.6875V18.218C11.6875 18.3092 11.7237 18.3966 11.7882 18.4611C11.8526 18.5255 11.9401 18.5617 12.0312 18.5617H17.1875C17.5522 18.5617 17.9019 18.4169 18.1598 18.159C18.4176 17.9012 18.5625 17.5514 18.5625 17.1867V11.6867C18.9272 11.6867 19.2769 11.5419 19.5348 11.284C19.7926 11.0262 19.9375 10.6764 19.9375 10.3117V7.56175C19.9375 7.19707 19.7926 6.84734 19.5348 6.58948C19.2769 6.33161 18.9272 6.18675 18.5625 6.18675ZM7.26258 5.06956C7.14237 4.9607 7.04596 4.82817 6.97941 4.68028C6.91286 4.5324 6.87761 4.37235 6.87586 4.21018C6.87151 4.02018 6.90513 3.83122 6.97475 3.65437C7.04436 3.47752 7.14857 3.31635 7.28127 3.18029C7.41397 3.04423 7.57248 2.93602 7.74754 2.862C7.92259 2.78799 8.11065 2.74965 8.3007 2.74925H8.34281C8.50497 2.751 8.66502 2.78625 8.81291 2.8528C8.9608 2.91935 9.09333 3.01576 9.20219 3.13597C9.9232 3.95065 10.1776 5.30159 10.267 6.1369C9.4282 6.04839 8.07812 5.79401 7.26258 5.06956ZM14.7391 5.06956C13.9236 5.79143 12.5701 6.04581 11.7313 6.13518C11.8336 5.23198 12.1172 3.9094 12.8047 3.13682C12.9135 3.01662 13.0461 2.92021 13.194 2.85366C13.3419 2.78711 13.5019 2.75185 13.6641 2.75011H13.7062C13.8962 2.75129 14.0842 2.79041 14.2589 2.86515C14.4337 2.9399 14.5917 3.04877 14.7239 3.18539C14.856 3.32202 14.9596 3.48364 15.0284 3.66079C15.0973 3.83794 15.1301 4.02706 15.125 4.21706C15.1222 4.37812 15.0864 4.53689 15.0197 4.68353C14.953 4.83018 14.8569 4.96157 14.7374 5.06956H14.7391Z" fill="#2F0FD1"/>
</svg>
