<svg width="513" height="565" viewBox="0 0 513 565" fill="none" xmlns="http://www.w3.org/2000/svg">
<rect x="0.0678711" y="121.615" width="502.705" height="104" rx="52" transform="rotate(-14 0.0678711 121.615)" fill="#EDF2FF"/>
<g clip-path="url(#clip0_149_11981)">
<path d="M98.1323 163.098C96.6187 163.476 95.2303 163.661 93.9671 163.654C92.7098 163.671 91.5865 163.481 90.5972 163.085C89.6254 162.659 88.808 162.059 88.1449 161.285C87.476 160.487 86.9789 159.485 86.6537 158.28L90.2786 156.152C90.534 157.276 90.9991 158.149 91.6739 158.772C92.3429 159.372 93.1751 159.734 94.1704 159.856C95.1889 159.974 96.2921 159.884 97.4797 159.588C98.6208 159.303 99.5407 158.926 100.24 158.455C100.962 157.978 101.463 157.457 101.742 156.893C102.016 156.305 102.078 155.708 101.927 155.103C101.758 154.427 101.38 153.953 100.793 153.679C100.199 153.382 99.4512 153.209 98.549 153.162C97.6643 153.086 96.6689 153.062 95.5629 153.091C94.358 153.119 93.1705 153.118 92.0006 153.088C90.8539 153.053 89.7742 152.889 88.7616 152.597C87.7489 152.306 86.8761 151.831 86.1431 151.172C85.4276 150.485 84.9159 149.524 84.6082 148.29C84.2598 146.893 84.3101 145.607 84.7591 144.431C85.2022 143.232 86.0178 142.188 87.2058 141.298C88.4113 140.379 89.9455 139.687 91.8085 139.223C93.6482 138.764 95.3247 138.643 96.838 138.859C98.3454 139.052 99.6141 139.577 100.644 140.433C101.674 141.29 102.389 142.422 102.79 143.831L99.0512 145.951C98.8596 145.182 98.5661 144.55 98.1706 144.055C97.7925 143.531 97.3242 143.141 96.7656 142.884C96.2011 142.605 95.5697 142.453 94.8712 142.429C94.196 142.4 93.4508 142.487 92.6358 142.69C91.681 142.928 90.8746 143.265 90.2166 143.701C89.5818 144.131 89.1362 144.626 88.8798 145.185C88.6175 145.72 88.5618 146.29 88.7128 146.896C88.8986 147.641 89.3261 148.165 89.9953 148.468C90.6645 148.771 91.488 148.949 92.4659 149.002C93.4613 149.026 94.5381 149.03 95.6965 149.013C96.7501 148.973 97.8153 148.98 98.8921 149.033C99.9922 149.08 101.034 149.241 102.018 149.515C103.001 149.789 103.854 150.281 104.575 150.992C105.314 151.674 105.84 152.643 106.153 153.901C106.49 155.251 106.425 156.529 105.959 157.733C105.493 158.938 104.607 160 103.303 160.919C101.998 161.838 100.275 162.564 98.1323 163.098ZM111.764 159.217L108.881 147.655L107.209 140.949L110.807 140.051L112.095 145.666L112.724 145.51C112.713 144.078 112.854 142.855 113.146 141.843C113.455 140.801 113.938 139.963 114.597 139.329C115.255 138.695 116.084 138.253 117.086 138.004C118.204 137.725 119.187 137.752 120.037 138.084C120.887 138.416 121.611 138.99 122.21 139.805C122.826 140.592 123.329 141.567 123.719 142.731L124.277 142.592C124.243 141.166 124.396 139.941 124.734 138.916C125.095 137.886 125.629 137.049 126.333 136.403C127.061 135.751 127.926 135.301 128.927 135.051C129.905 134.807 130.816 134.79 131.66 135.001C132.504 135.211 133.266 135.639 133.947 136.285C134.645 136.903 135.253 137.753 135.77 138.836C136.311 139.913 136.767 141.197 137.139 142.688L139.534 152.293L135.097 153.399L132.842 144.352C132.517 143.048 132.13 141.995 131.682 141.191C131.258 140.382 130.761 139.825 130.191 139.522C129.638 139.19 129 139.114 128.278 139.294C127.463 139.497 126.82 139.942 126.348 140.629C125.876 141.315 125.587 142.191 125.482 143.256C125.371 144.298 125.434 145.445 125.672 146.697L127.797 155.22L123.466 156.3L121.262 147.462C120.925 146.112 120.53 145.023 120.077 144.196C119.617 143.346 119.1 142.758 118.524 142.431C117.948 142.105 117.299 142.032 116.577 142.212C115.738 142.421 115.086 142.88 114.62 143.59C114.177 144.294 113.903 145.179 113.798 146.244C113.715 147.303 113.802 148.444 114.057 149.667L116.165 158.12L111.764 159.217ZM148.544 150.529C147.543 150.779 146.6 150.816 145.715 150.641C144.825 150.442 144.051 150.017 143.393 149.365C142.759 148.707 142.3 147.807 142.016 146.666C141.777 145.711 141.749 144.852 141.93 144.09C142.134 143.322 142.545 142.638 143.162 142.039C143.774 141.417 144.58 140.832 145.582 140.286C146.578 139.716 147.771 139.146 149.163 138.576C149.926 138.263 150.537 137.987 150.997 137.748C151.48 137.504 151.809 137.236 151.984 136.946C152.153 136.631 152.177 136.23 152.055 135.741C151.875 135.019 151.465 134.465 150.825 134.081C150.202 133.667 149.332 133.6 148.214 133.878C147.539 134.047 146.916 134.326 146.345 134.715C145.798 135.099 145.367 135.603 145.052 136.225C144.731 136.824 144.591 137.552 144.631 138.408L140.379 138.169C140.403 137.174 140.576 136.278 140.896 135.48C141.211 134.66 141.669 133.915 142.268 133.246C142.868 132.577 143.605 132.01 144.479 131.545C145.352 131.08 146.348 130.708 147.465 130.429C149.165 130.005 150.632 129.936 151.866 130.222C153.094 130.485 154.121 131.132 154.947 132.163C155.767 133.17 156.404 134.582 156.856 136.399L157.71 139.822C157.907 140.613 158.125 141.437 158.363 142.293C158.619 143.12 158.877 143.958 159.139 144.808C159.418 145.629 159.702 146.424 159.993 147.192L156.046 148.177C155.79 147.548 155.534 146.869 155.279 146.142C155.023 145.414 154.776 144.672 154.538 143.915L153.979 144.054C153.874 145.02 153.611 145.951 153.191 146.848C152.766 147.72 152.166 148.488 151.391 149.151C150.634 149.785 149.685 150.245 148.544 150.529ZM149.481 146.845C149.946 146.729 150.392 146.531 150.817 146.252C151.265 145.967 151.682 145.604 152.066 145.162C152.451 144.72 152.783 144.216 153.062 143.652C153.336 143.064 153.532 142.409 153.649 141.688L152.804 138.596L153.677 138.527C153.362 138.952 152.937 139.33 152.401 139.661C151.866 139.993 151.283 140.286 150.655 140.542C150.049 140.792 149.438 141.068 148.821 141.37C148.221 141.643 147.691 141.949 147.231 142.286C146.765 142.6 146.427 142.981 146.217 143.429C146.002 143.854 145.972 144.381 146.129 145.01C146.326 145.801 146.736 146.355 147.359 146.669C147.982 146.984 148.689 147.043 149.481 146.845ZM164.33 146.111L162.048 136.959L159.775 127.842L163.478 126.919L164.976 133.224L165.605 133.067C165.443 131.525 165.461 130.209 165.659 129.121C165.852 128.009 166.284 127.11 166.953 126.424C167.617 125.714 168.532 125.214 169.696 124.923C169.929 124.865 170.176 124.816 170.438 124.776C170.723 124.729 171.041 124.712 171.39 124.724L172.374 129.413C171.966 129.366 171.559 129.369 171.151 129.421C170.761 129.444 170.403 129.496 170.077 129.578C169.169 129.804 168.435 130.234 167.876 130.868C167.34 131.497 166.97 132.294 166.766 133.26C166.579 134.197 166.526 135.274 166.607 136.49L168.732 145.014L164.33 146.111ZM186.314 141.075C184.381 141.557 182.833 141.399 181.669 140.601C180.5 139.779 179.642 138.274 179.096 136.085L176.91 127.317L174.221 127.988L173.42 124.477L175.201 124.033C175.876 123.865 176.351 123.635 176.625 123.344C176.898 123.054 177.004 122.632 176.94 122.079L176.697 119.319L179.247 118.684L180.257 122.735L185.078 121.534L185.992 125.201L181.172 126.403L183.279 134.856C183.494 135.718 183.849 136.297 184.344 136.595C184.861 136.886 185.528 136.93 186.343 136.727C186.785 136.617 187.205 136.463 187.6 136.265C188.014 136.038 188.375 135.75 188.684 135.401L189.729 139.593C189.065 140.006 188.439 140.323 187.851 140.543C187.292 140.782 186.78 140.959 186.314 141.075ZM212.344 134.622C210.598 135.057 208.977 135.202 207.481 135.055C205.979 134.886 204.629 134.431 203.43 133.691C202.226 132.928 201.185 131.876 200.306 130.537C199.428 129.198 198.754 127.585 198.284 125.698C197.796 123.742 197.62 121.944 197.755 120.302C197.913 118.655 198.339 117.188 199.032 115.902C199.72 114.593 200.661 113.505 201.855 112.639C203.048 111.772 204.46 111.136 206.09 110.729C207.348 110.416 208.553 110.288 209.705 110.347C210.858 110.406 211.9 110.666 212.831 111.126C213.779 111.558 214.588 112.172 215.257 112.97C215.92 113.745 216.405 114.7 216.713 115.835L212.861 117.946C212.623 116.892 212.184 116.074 211.544 115.491C210.905 114.909 210.168 114.536 209.336 114.372C208.527 114.203 207.703 114.223 206.865 114.432C206.12 114.618 205.413 114.955 204.743 115.443C204.096 115.926 203.563 116.566 203.144 117.363C202.724 118.16 202.473 119.138 202.391 120.296C202.303 121.431 202.451 122.767 202.834 124.304C203.321 126.26 203.996 127.774 204.857 128.846C205.741 129.912 206.756 130.611 207.902 130.943C209.066 131.247 210.289 131.239 211.57 130.919C212.874 130.594 213.846 130.08 214.487 129.376C215.122 128.649 215.506 127.811 215.641 126.862C215.77 125.89 215.73 124.886 215.521 123.85L219.563 123.547C219.842 124.763 219.94 125.951 219.858 127.109C219.776 128.267 219.461 129.335 218.913 130.313C218.389 131.285 217.588 132.14 216.51 132.878C215.433 133.617 214.044 134.198 212.344 134.622ZM233.505 129.346C231.712 129.793 230.039 129.827 228.485 129.448C226.925 129.045 225.572 128.232 224.426 127.009C223.298 125.757 222.472 124.083 221.95 121.987C221.416 119.844 221.37 117.976 221.814 116.381C222.275 114.758 223.105 113.425 224.305 112.384C225.504 111.343 226.966 110.607 228.689 110.178C230.482 109.731 232.156 109.697 233.71 110.076C235.264 110.455 236.617 111.268 237.768 112.515C238.914 113.738 239.751 115.409 240.28 117.528C240.814 119.67 240.862 121.551 240.425 123.169C239.987 124.786 239.157 126.119 237.934 127.166C236.728 128.184 235.252 128.91 233.505 129.346ZM232.844 125.949C233.822 125.705 234.594 125.278 235.159 124.667C235.718 124.033 236.059 123.218 236.182 122.223C236.328 121.222 236.244 120.093 235.931 118.835C235.6 117.508 235.12 116.428 234.492 115.595C233.881 114.733 233.151 114.136 232.302 113.803C231.475 113.465 230.527 113.43 229.455 113.697C228.524 113.929 227.767 114.365 227.184 115.005C226.596 115.622 226.226 116.419 226.074 117.397C225.945 118.369 226.044 119.507 226.369 120.811C226.88 122.86 227.702 124.325 228.837 125.204C229.995 126.078 231.33 126.326 232.844 125.949ZM246.506 125.622L243.728 114.479L241.951 107.353L245.619 106.439L246.907 112.054L247.536 111.897C247.52 110.442 247.669 109.205 247.984 108.187C248.322 107.163 248.867 106.322 249.618 105.664C250.37 105.007 251.316 104.536 252.457 104.252C254.529 103.735 256.284 104.077 257.721 105.277C259.181 106.471 260.295 108.605 261.061 111.679L263.482 121.39L259.046 122.496L256.738 113.239C256.245 111.26 255.582 109.891 254.75 109.134C253.936 108.348 252.946 108.1 251.782 108.39C250.804 108.634 250.056 109.154 249.537 109.951C249.013 110.725 248.692 111.671 248.575 112.789C248.475 113.877 248.565 115.03 248.843 116.246L250.907 124.525L246.506 125.622ZM274.596 119.064C272.663 119.546 271.115 119.388 269.951 118.589C268.781 117.768 267.924 116.263 267.378 114.074L265.192 105.306L262.502 105.977L261.701 102.466L263.483 102.022C264.158 101.854 264.633 101.624 264.906 101.333C265.18 101.042 265.285 100.62 265.222 100.067L264.979 97.3082L267.529 96.6724L268.539 100.724L273.359 99.5225L274.274 103.19L269.454 104.392L271.561 112.845C271.776 113.707 272.131 114.286 272.625 114.584C273.143 114.875 273.81 114.919 274.625 114.716C275.067 114.605 275.486 114.451 275.882 114.254C276.296 114.027 276.657 113.739 276.965 113.39L278.011 117.582C277.347 117.995 276.721 118.311 276.133 118.532C275.574 118.771 275.061 118.948 274.596 119.064ZM281.675 116.853L279.394 107.702L277.121 98.5848L280.823 97.6616L282.321 103.967L282.95 103.81C282.788 102.267 282.806 100.952 283.005 99.8633C283.197 98.7516 283.629 97.8525 284.299 97.1661C284.963 96.4564 285.877 95.9564 287.041 95.6661C287.274 95.608 287.521 95.5587 287.783 95.5181C288.069 95.4717 288.386 95.4545 288.735 95.4663L289.719 100.156C289.311 100.109 288.904 100.111 288.496 100.164C288.106 100.187 287.748 100.239 287.422 100.32C286.514 100.547 285.78 100.977 285.221 101.611C284.685 102.239 284.315 103.036 284.111 104.003C283.924 104.94 283.871 106.016 283.952 107.233L286.077 115.756L281.675 116.853ZM296.412 113.179L291.857 94.9106L296.258 93.8132L300.813 112.082L296.412 113.179ZM293.343 91.4976C292.458 91.7182 291.725 91.7032 291.143 91.4525C290.579 91.1728 290.206 90.672 290.026 89.9501C289.846 89.2282 289.943 88.6228 290.316 88.1341C290.706 87.6163 291.344 87.2471 292.229 87.0265C293.16 86.7942 293.905 86.8063 294.464 87.0628C295.022 87.3193 295.395 87.8201 295.58 88.5653C295.76 89.2872 295.655 89.907 295.265 90.4249C294.892 90.9136 294.252 91.2712 293.343 91.4976ZM316.351 108.69C315.187 108.981 314.13 109.009 313.181 108.776C312.227 108.519 311.377 108.038 310.633 107.333C309.911 106.623 309.289 105.714 308.766 104.608L308.137 104.765L309.461 109.926L305.758 110.849L303.52 101.872L299.575 86.0482L303.976 84.9508L305.448 90.8541C305.587 91.413 305.703 92.0271 305.796 92.6966C305.889 93.3661 305.964 94.0646 306.022 94.7923C306.074 95.4966 306.117 96.2155 306.151 96.949L306.885 96.7661C306.909 95.5728 307.061 94.496 307.341 93.5358C307.639 92.5464 308.134 91.7056 308.827 91.0134C309.52 90.3211 310.46 89.827 311.648 89.5308C313.162 89.1535 314.567 89.2358 315.865 89.778C317.18 90.2911 318.321 91.194 319.286 92.4869C320.246 93.7564 320.969 95.3692 321.457 97.3254C321.933 99.2349 322.046 100.975 321.794 102.547C321.566 104.113 320.992 105.431 320.072 106.501C319.175 107.566 317.934 108.295 316.351 108.69ZM314.048 105.406C314.91 105.191 315.605 104.758 316.136 104.106C316.666 103.455 316.983 102.646 317.089 101.68C317.217 100.708 317.131 99.616 316.829 98.4051C316.539 97.2408 316.12 96.2568 315.573 95.4531C315.027 94.6495 314.375 94.0699 313.619 93.7144C312.862 93.3588 312.03 93.2943 311.122 93.5207C310.516 93.6717 309.989 93.9391 309.541 94.323C309.087 94.6836 308.725 95.1199 308.457 95.632C308.183 96.1208 307.979 96.6416 307.845 97.1945C307.711 97.7474 307.641 98.3091 307.635 98.8795C307.646 99.4209 307.707 99.9128 307.817 100.355L307.965 100.949C308.11 101.531 308.36 102.137 308.715 102.766C309.064 103.371 309.506 103.904 310.041 104.364C310.576 104.824 311.181 105.168 311.856 105.396C312.526 105.6 313.256 105.603 314.048 105.406ZM333.883 104.319C331.787 104.842 330.026 104.526 328.601 103.373C327.193 102.19 326.126 100.144 325.4 97.2326L322.892 87.1726L327.328 86.0665L329.715 95.6375C330.173 97.4772 330.795 98.7815 331.581 99.5503C332.366 100.319 333.341 100.558 334.505 100.268C335.181 100.1 335.734 99.7887 336.165 99.3349C336.59 98.8579 336.913 98.2702 337.135 97.5718C337.351 96.8502 337.462 96.0557 337.468 95.1884C337.498 94.3153 337.414 93.3839 337.217 92.3942L335.153 84.1157L339.554 83.0183L342.237 93.777L344.109 101.287L340.476 102.193L339.109 96.4118L338.48 96.5686C338.543 98.1112 338.409 99.4062 338.076 100.454C337.767 101.495 337.272 102.336 336.59 102.976C335.903 103.593 335.001 104.04 333.883 104.319ZM355.612 98.8644C353.679 99.3463 352.131 99.1881 350.967 98.3899C349.797 97.5685 348.94 96.0632 348.394 93.8742L346.208 85.1066L343.518 85.7773L342.717 82.2668L344.499 81.8226C345.174 81.6542 345.649 81.4246 345.922 81.1337C346.196 80.8429 346.301 80.4209 346.237 79.8679L345.995 77.1087L348.545 76.4729L349.555 80.5248L354.375 79.323L355.29 82.9907L350.469 84.1926L352.577 92.6458C352.792 93.5074 353.147 94.0868 353.641 94.384C354.159 94.6753 354.825 94.7194 355.641 94.5162C356.083 94.4059 356.502 94.2519 356.898 94.0542C357.312 93.8275 357.673 93.5396 357.981 93.1905L359.026 97.3822C358.363 97.7951 357.737 98.1119 357.149 98.3327C356.59 98.571 356.077 98.7482 355.612 98.8644ZM362.691 96.654L358.136 78.3852L362.538 77.2879L367.093 95.5566L362.691 96.654ZM359.623 74.9722C358.738 75.1929 358.005 75.1779 357.423 74.9272C356.858 74.6474 356.486 74.1466 356.306 73.4247C356.126 72.7028 356.222 72.0975 356.595 71.6088C356.986 71.091 357.623 70.7218 358.508 70.5011C359.44 70.2689 360.185 70.281 360.743 70.5375C361.302 70.7939 361.674 71.2948 361.86 72.0399C362.04 72.7618 361.935 73.3817 361.544 73.8995C361.172 74.3882 360.531 74.7458 359.623 74.9722ZM380.255 92.7571C378.462 93.2042 376.789 93.2381 375.235 92.8587C373.675 92.4561 372.322 91.6433 371.176 90.4201C370.048 89.1679 369.222 87.4939 368.7 85.3981C368.165 83.2557 368.12 81.3872 368.563 79.7925C369.024 78.1688 369.855 76.8363 371.054 75.7952C372.254 74.754 373.716 74.0186 375.439 73.5889C377.232 73.1419 378.905 73.108 380.459 73.4873C382.013 73.8667 383.366 74.6795 384.518 75.9259C385.664 77.149 386.501 78.8201 387.029 80.9393C387.564 83.0817 387.612 84.9618 387.174 86.5798C386.737 88.1977 385.906 89.5301 384.683 90.5771C383.478 91.595 382.002 92.3217 380.255 92.7571ZM379.594 89.3603C380.572 89.1164 381.343 88.6891 381.908 88.0782C382.468 87.4441 382.809 86.6294 382.931 85.6341C383.078 84.633 382.994 83.5037 382.68 82.2462C382.349 80.9188 381.87 79.8388 381.242 79.006C380.631 78.1441 379.901 77.547 379.051 77.2147C378.225 76.8766 377.276 76.841 376.205 77.1081C375.274 77.3404 374.517 77.7764 373.934 78.4164C373.346 79.033 372.976 79.8302 372.824 80.808C372.695 81.78 372.793 82.9181 373.118 84.2222C373.629 86.2714 374.452 87.7359 375.587 88.6156C376.744 89.4894 378.08 89.7377 379.594 89.3603ZM393.256 89.0334L390.477 77.8905L388.701 70.7647L392.368 69.8502L393.657 75.4653L394.286 75.3085C394.269 73.8533 394.419 72.6164 394.734 71.598C395.072 70.5737 395.617 69.733 396.368 69.0757C397.119 68.4184 398.065 67.9475 399.206 67.663C401.279 67.1463 403.034 67.4879 404.471 68.6879C405.931 69.8821 407.044 72.0161 407.811 75.09L410.232 84.8008L405.796 85.9068L403.488 76.6502C402.994 74.6708 402.332 73.3025 401.5 72.5452C400.685 71.7589 399.696 71.5109 398.532 71.8012C397.553 72.0451 396.805 72.5656 396.287 73.3627C395.762 74.1365 395.441 75.0822 395.324 76.1997C395.225 77.2882 395.314 78.4408 395.593 79.6575L397.657 87.9361L393.256 89.0334ZM422.087 82.3273C420.853 82.6351 419.703 82.7857 418.638 82.7792C417.602 82.7902 416.679 82.6615 415.87 82.3933C415.055 82.1017 414.36 81.6938 413.784 81.1696C413.202 80.622 412.766 79.964 412.476 79.1955L415.612 77.0408C415.809 77.6347 416.178 78.1239 416.719 78.5084C417.255 78.8696 417.93 79.0971 418.745 79.1907C419.56 79.2843 420.491 79.2005 421.539 78.9393C422.703 78.649 423.556 78.2508 424.098 77.7447C424.657 77.2095 424.852 76.6043 424.684 75.929C424.562 75.4399 424.292 75.0992 423.873 74.9069C423.448 74.6912 422.875 74.5745 422.153 74.5565C421.449 74.5095 420.607 74.509 419.629 74.5549C418.721 74.5835 417.796 74.5916 416.853 74.5794C415.927 74.5381 415.043 74.4123 414.199 74.2023C413.372 73.9631 412.645 73.5755 412.017 73.0396C411.406 72.4746 410.973 71.6798 410.717 70.6552C410.439 69.5374 410.489 68.4984 410.868 67.5382C411.27 66.5722 411.972 65.717 412.974 64.9725C413.999 64.2223 415.314 63.6468 416.921 63.2462C418.435 62.8688 419.791 62.7533 420.99 62.8995C422.212 63.04 423.272 63.419 424.168 64.0366C425.058 64.6309 425.73 65.4404 426.183 66.4652L422.838 68.5237C422.605 67.889 422.248 67.397 421.765 67.0474C421.276 66.6745 420.688 66.4501 420.001 66.374C419.315 66.2979 418.552 66.3643 417.714 66.5733C416.642 66.8404 415.851 67.2357 415.338 67.7593C414.825 68.2828 414.648 68.859 414.804 69.4878C414.932 70.0001 415.22 70.3611 415.668 70.571C416.139 70.775 416.736 70.886 417.458 70.9039C418.203 70.916 419.041 70.9049 419.972 70.8706C420.95 70.8246 421.902 70.8223 422.827 70.8636C423.77 70.8759 424.641 70.9928 425.438 71.2145C426.235 71.4362 426.925 71.8208 427.506 72.3684C428.082 72.8926 428.495 73.6554 428.745 74.6568C429.047 75.8677 428.979 76.9852 428.542 78.0094C428.099 79.0103 427.327 79.883 426.226 80.6274C425.143 81.3426 423.763 81.9093 422.087 82.3273Z" fill="#2F0FD1"/>
</g>
<rect x="0.0678711" y="463.615" width="502.705" height="104" rx="52" transform="rotate(-14 0.0678711 463.615)" fill="#E2F1FE"/>
<g clip-path="url(#clip1_149_11981)">
<path d="M143.418 494.297C141.905 494.674 140.516 494.86 139.253 494.853C137.996 494.87 136.873 494.68 135.883 494.283C134.911 493.858 134.094 493.258 133.431 492.483C132.762 491.685 132.265 490.684 131.94 489.479L135.565 487.351C135.82 488.474 136.285 489.348 136.96 489.971C137.629 490.571 138.461 490.932 139.456 491.055C140.475 491.172 141.578 491.083 142.766 490.787C143.907 490.502 144.827 490.124 145.526 489.653C146.248 489.176 146.749 488.656 147.028 488.091C147.302 487.504 147.364 486.907 147.213 486.301C147.044 485.626 146.666 485.152 146.079 484.878C145.485 484.58 144.737 484.408 143.835 484.361C142.95 484.285 141.955 484.261 140.849 484.289C139.644 484.318 138.457 484.317 137.287 484.287C136.14 484.251 135.06 484.088 134.048 483.796C133.035 483.504 132.162 483.029 131.429 482.371C130.714 481.684 130.202 480.723 129.894 479.489C129.546 478.092 129.596 476.805 130.045 475.63C130.488 474.431 131.304 473.387 132.492 472.497C133.697 471.578 135.232 470.886 137.095 470.422C138.934 469.963 140.611 469.842 142.124 470.058C143.631 470.251 144.9 470.776 145.93 471.632C146.96 472.488 147.675 473.621 148.076 475.03L144.337 477.149C144.146 476.381 143.852 475.749 143.457 475.254C143.079 474.73 142.61 474.34 142.052 474.083C141.487 473.803 140.856 473.652 140.157 473.628C139.482 473.598 138.737 473.685 137.922 473.888C136.967 474.127 136.161 474.464 135.503 474.9C134.868 475.33 134.422 475.825 134.166 476.383C133.904 476.919 133.848 477.489 133.999 478.094C134.185 478.84 134.612 479.364 135.281 479.667C135.951 479.97 136.774 480.148 137.752 480.201C138.747 480.225 139.824 480.229 140.983 480.212C142.036 480.172 143.101 480.178 144.178 480.231C145.278 480.279 146.32 480.439 147.304 480.714C148.287 480.988 149.14 481.48 149.861 482.191C150.6 482.872 151.126 483.842 151.44 485.099C151.776 486.45 151.711 487.728 151.245 488.932C150.779 490.137 149.893 491.199 148.589 492.117C147.284 493.036 145.561 493.763 143.418 494.297ZM160.577 489.537L151.376 472.426L155.987 471.276L162.553 485.259L163.182 485.103L162.834 469.569L168.213 468.228L175.303 482.081L175.931 481.924L175.094 466.513L179.6 465.389L179.509 484.816L173.397 486.34L166.604 472.488L166.08 472.619L166.655 488.021L160.577 489.537ZM187.988 482.702L183.433 464.433L187.834 463.336L192.389 481.605L187.988 482.702ZM184.92 461.02C184.035 461.241 183.301 461.226 182.719 460.975C182.155 460.696 181.783 460.195 181.603 459.473C181.423 458.751 181.519 458.146 181.892 457.657C182.282 457.139 182.92 456.77 183.805 456.549C184.736 456.317 185.481 456.329 186.04 456.586C186.599 456.842 186.971 457.343 187.157 458.088C187.337 458.81 187.231 459.43 186.841 459.948C186.468 460.436 185.828 460.794 184.92 461.02ZM199.431 479.849L196.417 467.763L193.378 468.521L192.551 465.203L197.397 464.254L197.241 463.625C196.466 463.596 195.785 463.444 195.198 463.17C194.604 462.873 194.121 462.474 193.749 461.973C193.4 461.466 193.144 460.887 192.982 460.235C192.732 459.233 192.762 458.311 193.071 457.467C193.38 456.623 193.928 455.893 194.714 455.276C195.494 454.637 196.49 454.166 197.701 453.864C198.702 453.614 199.642 453.516 200.521 453.569C201.423 453.616 202.177 453.762 202.782 454.007L203.443 458.146C202.826 457.854 202.151 457.676 201.418 457.612C200.679 457.524 199.995 457.559 199.366 457.715C198.644 457.895 198.102 458.253 197.741 458.788C197.374 459.3 197.304 460.01 197.53 460.919C197.675 461.501 197.899 461.952 198.202 462.272C198.498 462.569 198.836 462.782 199.214 462.91C199.61 463.01 199.982 463.065 200.332 463.077L204.593 462.014L205.464 465.508L200.714 466.692L203.727 478.778L199.431 479.849ZM219.249 475.353C217.316 475.835 215.768 475.677 214.604 474.879C213.435 474.057 212.577 472.552 212.031 470.363L209.845 461.595L207.155 462.266L206.354 458.756L208.136 458.311C208.811 458.143 209.286 457.913 209.559 457.623C209.833 457.332 209.938 456.91 209.875 456.357L209.632 453.598L212.182 452.962L213.192 457.014L218.013 455.812L218.927 459.48L214.107 460.681L216.214 469.135C216.429 469.996 216.784 470.576 217.278 470.873C217.796 471.164 218.463 471.208 219.278 471.005C219.72 470.895 220.139 470.741 220.535 470.543C220.949 470.316 221.31 470.028 221.619 469.679L222.664 473.871C222 474.284 221.374 474.601 220.786 474.822C220.227 475.06 219.714 475.237 219.249 475.353ZM236.294 470.658L230.545 447.604L234.982 446.498L240.73 469.552L236.294 470.658ZM239.158 469.944L238.252 466.311L252.609 462.732L253.514 466.365L239.158 469.944ZM236.658 459.919L235.822 456.566L248.467 453.413L249.303 456.766L236.658 459.919ZM234.316 450.523L233.41 446.89L247.696 443.328L248.602 446.961L234.316 450.523ZM262.339 464.647C261.338 464.896 260.395 464.934 259.51 464.758C258.62 464.56 257.846 464.134 257.188 463.482C256.554 462.824 256.095 461.924 255.811 460.783C255.573 459.829 255.544 458.97 255.725 458.208C255.929 457.439 256.34 456.756 256.957 456.156C257.569 455.534 258.376 454.95 259.377 454.403C260.373 453.833 261.566 453.263 262.958 452.694C263.721 452.38 264.332 452.104 264.792 451.866C265.275 451.621 265.604 451.354 265.779 451.063C265.948 450.749 265.972 450.347 265.85 449.858C265.67 449.136 265.26 448.583 264.62 448.198C263.997 447.785 263.127 447.717 262.009 447.996C261.334 448.164 260.711 448.443 260.14 448.833C259.593 449.217 259.162 449.72 258.847 450.343C258.526 450.942 258.386 451.669 258.427 452.525L254.175 452.287C254.198 451.291 254.371 450.395 254.691 449.598C255.006 448.777 255.464 448.032 256.064 447.363C256.664 446.694 257.4 446.127 258.274 445.662C259.147 445.197 260.143 444.825 261.261 444.547C262.96 444.123 264.427 444.054 265.661 444.34C266.889 444.603 267.916 445.249 268.742 446.28C269.562 447.288 270.199 448.7 270.652 450.516L271.505 453.939C271.703 454.731 271.92 455.555 272.158 456.411C272.414 457.237 272.672 458.076 272.934 458.926C273.213 459.747 273.497 460.541 273.788 461.31L269.841 462.294C269.585 461.665 269.329 460.987 269.074 460.259C268.818 459.531 268.571 458.789 268.333 458.032L267.774 458.171C267.669 459.138 267.406 460.069 266.987 460.965C266.561 461.838 265.961 462.606 265.186 463.269C264.429 463.903 263.48 464.362 262.339 464.647ZM263.276 460.963C263.742 460.847 264.187 460.649 264.612 460.37C265.06 460.085 265.477 459.721 265.861 459.279C266.246 458.837 266.578 458.334 266.858 457.769C267.132 457.182 267.327 456.527 267.444 455.805L266.599 452.714L267.472 452.644C267.157 453.069 266.732 453.447 266.197 453.779C265.661 454.11 265.079 454.404 264.45 454.659C263.844 454.909 263.233 455.185 262.616 455.488C262.016 455.761 261.486 456.066 261.026 456.403C260.56 456.718 260.222 457.099 260.012 457.547C259.797 457.971 259.767 458.498 259.924 459.127C260.122 459.919 260.532 460.472 261.154 460.787C261.777 461.101 262.484 461.16 263.276 460.963ZM278.824 460.054L276.542 450.902L274.269 441.785L277.972 440.862L279.47 447.167L280.098 447.01C279.936 445.468 279.955 444.152 280.153 443.064C280.346 441.952 280.777 441.053 281.447 440.367C282.111 439.657 283.025 439.157 284.19 438.867C284.423 438.809 284.67 438.759 284.932 438.719C285.217 438.672 285.534 438.655 285.884 438.667L286.867 443.356C286.46 443.31 286.053 443.312 285.645 443.364C285.255 443.387 284.897 443.439 284.571 443.521C283.663 443.747 282.929 444.178 282.37 444.812C281.834 445.44 281.464 446.237 281.259 447.203C281.073 448.14 281.02 449.217 281.1 450.434L283.225 458.957L278.824 460.054ZM294.259 456.206L291.481 445.063L289.704 437.937L293.372 437.023L294.661 442.638L295.289 442.481C295.273 441.026 295.422 439.789 295.737 438.77C296.075 437.746 296.62 436.905 297.371 436.248C298.123 435.591 299.069 435.12 300.21 434.835C302.282 434.319 304.037 434.66 305.474 435.86C306.934 437.054 308.048 439.189 308.814 442.262L311.235 451.973L306.799 453.079L304.491 443.823C303.998 441.843 303.335 440.475 302.503 439.718C301.689 438.931 300.699 438.683 299.535 438.974C298.557 439.217 297.809 439.738 297.29 440.535C296.766 441.309 296.445 442.255 296.328 443.372C296.228 444.461 296.318 445.613 296.596 446.83L298.66 455.108L294.259 456.206ZM316.585 450.639L312.03 432.371L316.431 431.273L320.986 449.542L316.585 450.639ZM313.516 428.958C312.631 429.178 311.898 429.163 311.316 428.913C310.751 428.633 310.379 428.132 310.199 427.41C310.019 426.688 310.116 426.083 310.489 425.594C310.879 425.076 311.517 424.707 312.401 424.487C313.333 424.254 314.078 424.266 314.637 424.523C315.195 424.779 315.567 425.28 315.753 426.025C315.933 426.747 315.828 427.367 315.438 427.885C315.065 428.374 314.424 428.731 313.516 428.958ZM326.63 448.135L323.852 436.992L322.075 429.866L325.743 428.952L327.031 434.567L327.66 434.41C327.644 432.955 327.793 431.718 328.108 430.699C328.446 429.675 328.991 428.834 329.742 428.177C330.493 427.52 331.44 427.049 332.581 426.764C334.653 426.248 336.408 426.589 337.845 427.789C339.305 428.984 340.419 431.118 341.185 434.191L343.606 443.902L339.17 445.008L336.862 435.752C336.369 433.772 335.706 432.404 334.874 431.647C334.06 430.86 333.07 430.612 331.906 430.903C330.928 431.146 330.179 431.667 329.661 432.464C329.136 433.238 328.816 434.184 328.699 435.301C328.599 436.39 328.688 437.542 328.967 438.759L331.031 447.038L326.63 448.135ZM357.614 447.088C355.635 447.582 353.967 447.837 352.611 447.853C351.278 447.864 350.233 447.642 349.476 447.188C348.72 446.733 348.232 446.063 348.011 445.179C347.744 444.107 347.945 443.13 348.615 442.245C349.303 441.332 350.464 440.585 352.1 440.003L351.926 439.305C350.675 439.642 349.688 439.752 348.966 439.635C348.239 439.495 347.794 439.098 347.631 438.446C347.474 437.818 347.649 437.18 348.156 436.535C348.686 435.883 349.656 435.208 351.065 434.511L350.891 433.812C349.453 434.097 348.236 433.93 347.241 433.312C346.241 432.671 345.575 431.687 345.244 430.36C344.948 429.172 345.012 428.043 345.438 426.972C345.864 425.901 346.641 424.953 347.771 424.127C348.918 423.272 350.4 422.618 352.216 422.166L361.263 419.91L362.134 423.403L356.197 423.993L356.388 424.761C357.89 424.634 359.051 424.778 359.872 425.191C360.716 425.599 361.262 426.304 361.512 427.305C361.75 428.26 361.659 429.186 361.24 430.082C360.814 430.955 360.071 431.746 359.012 432.455C357.969 433.136 356.633 433.679 355.003 434.085C354.7 434.161 354.371 434.231 354.016 434.294C353.661 434.358 353.099 434.436 352.331 434.529C351.929 435 351.611 435.413 351.378 435.768C351.14 436.1 351.049 436.382 351.107 436.615C351.154 436.801 351.311 436.935 351.578 437.017C351.84 437.075 352.163 437.081 352.548 437.035C352.932 436.989 353.299 436.922 353.648 436.835L358.503 435.624C358.969 435.508 359.571 435.395 360.311 435.285C361.073 435.169 361.853 435.172 362.651 435.295C363.471 435.412 364.208 435.736 364.859 436.266C365.534 436.79 366.02 437.646 366.316 438.834C366.647 440.161 366.532 441.34 365.973 442.37C365.443 443.417 364.47 444.327 363.055 445.101C361.663 445.868 359.85 446.531 357.614 447.088ZM357.11 443.429C358.554 443.069 359.686 442.7 360.507 442.323C361.328 441.945 361.878 441.523 362.158 441.058C362.444 440.615 362.517 440.115 362.377 439.556C362.25 439.044 362.035 438.677 361.732 438.455C361.424 438.211 361.069 438.077 360.667 438.053C360.289 438.024 359.91 438.044 359.532 438.113C359.154 438.183 358.836 438.25 358.58 438.314L354.284 439.385C353.206 439.827 352.493 440.338 352.143 440.92C351.817 441.496 351.724 442.064 351.863 442.623C352.002 443.182 352.293 443.554 352.735 443.741C353.183 443.951 353.768 444.015 354.49 443.934C355.235 443.847 356.109 443.679 357.11 443.429ZM354.297 431.701C355.508 431.399 356.358 430.891 356.848 430.175C357.331 429.436 357.457 428.601 357.225 427.669C356.975 426.668 356.446 425.934 355.637 425.468C354.846 424.973 353.845 424.876 352.634 425.178C351.423 425.48 350.558 426.03 350.039 426.827C349.544 427.618 349.418 428.503 349.662 429.481C349.819 430.109 350.098 430.634 350.5 431.053C350.918 431.443 351.442 431.708 352.071 431.848C352.717 431.959 353.459 431.91 354.297 431.701ZM377.632 435.901C376.398 436.209 375.249 436.359 374.183 436.353C373.147 436.364 372.225 436.235 371.416 435.967C370.601 435.675 369.906 435.267 369.33 434.743C368.748 434.196 368.312 433.537 368.021 432.769L371.157 430.614C371.355 431.208 371.724 431.697 372.265 432.082C372.8 432.443 373.475 432.671 374.29 432.764C375.105 432.858 376.037 432.774 377.085 432.513C378.249 432.222 379.102 431.824 379.644 431.318C380.203 430.783 380.398 430.178 380.23 429.502C380.108 429.013 379.837 428.673 379.418 428.48C378.994 428.265 378.42 428.148 377.698 428.13C376.994 428.083 376.153 428.082 375.175 428.128C374.267 428.157 373.342 428.165 372.399 428.153C371.473 428.112 370.588 427.986 369.745 427.776C368.918 427.537 368.191 427.149 367.562 426.613C366.952 426.048 366.518 425.253 366.263 424.229C365.984 423.111 366.034 422.072 366.413 421.112C366.816 420.146 367.518 419.29 368.519 418.546C369.544 417.796 370.86 417.22 372.467 416.82C373.981 416.442 375.337 416.327 376.536 416.473C377.758 416.613 378.817 416.993 379.713 417.61C380.604 418.204 381.275 419.014 381.729 420.039L378.383 422.097C378.151 421.463 377.793 420.97 377.31 420.621C376.822 420.248 376.234 420.024 375.547 419.947C374.86 419.871 374.098 419.938 373.259 420.147C372.188 420.414 371.396 420.809 370.884 421.333C370.371 421.856 370.193 422.432 370.35 423.061C370.478 423.574 370.766 423.935 371.214 424.144C371.685 424.348 372.282 424.459 373.003 424.477C373.748 424.489 374.587 424.478 375.518 424.444C376.496 424.398 377.448 424.396 378.373 424.437C379.316 424.449 380.186 424.566 380.984 424.788C381.781 425.01 382.47 425.394 383.052 425.942C383.628 426.466 384.041 427.229 384.291 428.23C384.592 429.441 384.525 430.559 384.088 431.583C383.645 432.584 382.873 433.456 381.772 434.201C380.689 434.916 379.309 435.483 377.632 435.901Z" fill="#1082E4"/>
</g>
<rect x="6.47107" y="226.582" width="494.705" height="112" rx="12" stroke="#8CC9FD" stroke-width="8"/>
<mask id="path-8-inside-1_149_11981" fill="white">
<path d="M2.47107 238.582C2.47107 229.745 9.63451 222.582 18.4711 222.582H253.823V342.582H18.4711C9.6345 342.582 2.47107 335.419 2.47107 326.582V238.582Z"/>
</mask>
<path d="M-5.52893 238.582C-5.52893 225.327 5.21624 214.582 18.4711 214.582H253.823V230.582H18.4711C14.0528 230.582 10.4711 234.164 10.4711 238.582H-5.52893ZM253.823 350.582H18.4711C5.21624 350.582 -5.52893 339.837 -5.52893 326.582H10.4711C10.4711 331 14.0528 334.582 18.4711 334.582H253.823V350.582ZM18.4711 350.582C5.21624 350.582 -5.52893 339.837 -5.52893 326.582V238.582C-5.52893 225.327 5.21624 214.582 18.4711 214.582V230.582C14.0528 230.582 10.4711 234.164 10.4711 238.582V326.582C10.4711 331 14.0528 334.582 18.4711 334.582V350.582ZM253.823 222.582V342.582V222.582Z" fill="#6546FF" mask="url(#path-8-inside-1_149_11981)"/>
<rect x="33.0679" y="250.691" width="64" height="64" rx="8" fill="#F7F9FD"/>
<rect x="32.0679" y="250.691" width="64" height="64" rx="8" fill="#F7F9FD"/>
<path d="M58.5123 298.896C61.579 298.896 64.0679 296.407 64.0679 293.341V287.785H58.5123C55.4457 287.785 52.9568 290.274 52.9568 293.341C52.9568 296.407 55.4457 298.896 58.5123 298.896Z" fill="#0ACF83"/>
<path d="M52.9568 282.231C52.9568 279.165 55.4457 276.676 58.5123 276.676H64.0679V287.787H58.5123C55.4457 287.787 52.9568 285.298 52.9568 282.231Z" fill="#A259FF"/>
<path d="M52.9568 271.12C52.9568 268.053 55.4457 265.564 58.5123 265.564H64.0679V276.676H58.5123C55.4457 276.676 52.9568 274.187 52.9568 271.12Z" fill="#F24E1E"/>
<path d="M64.0679 265.564H69.6234C72.6901 265.564 75.179 268.053 75.179 271.12C75.179 274.187 72.6901 276.676 69.6234 276.676H64.0679V265.564Z" fill="#FF7262"/>
<path d="M75.179 282.231C75.179 285.298 72.6901 287.787 69.6234 287.787C66.5568 287.787 64.0679 285.298 64.0679 282.231C64.0679 279.165 66.5568 276.676 69.6234 276.676C72.6901 276.676 75.179 279.165 75.179 282.231Z" fill="#1ABCFE"/>
<rect x="108.068" y="250.691" width="64" height="64" rx="8" fill="#F7F9FD"/>
<path d="M129.968 293.43L127.728 268.23H152.408L150.168 293.43L140.068 296.23L129.968 293.43ZM133.268 284.23L133.698 289.09L140.068 290.86L146.398 289.11L147.248 279.62H136.648L137.068 274.79L140.068 274.68H140.628L143.788 274.79L144.078 278.06H147.178L146.588 271.45H134.308L133.308 282.7H143.838L143.478 286.7L140.068 287.64L136.628 286.71L136.368 284.23H133.268Z" fill="#0D0516"/>
<rect x="260.068" y="250.691" width="64" height="64" rx="8" fill="#F7F9FD"/>
<path d="M286.512 298.896C289.579 298.896 292.068 296.407 292.068 293.341V287.785H286.512C283.446 287.785 280.957 290.274 280.957 293.341C280.957 296.407 283.446 298.896 286.512 298.896Z" fill="#0ACF83"/>
<path d="M280.957 282.231C280.957 279.165 283.446 276.676 286.512 276.676H292.068V287.787H286.512C283.446 287.787 280.957 285.298 280.957 282.231Z" fill="#A259FF"/>
<path d="M280.957 271.12C280.957 268.053 283.446 265.564 286.512 265.564H292.068V276.676H286.512C283.446 276.676 280.957 274.187 280.957 271.12Z" fill="#F24E1E"/>
<path d="M292.068 265.564H297.623C300.69 265.564 303.179 268.053 303.179 271.12C303.179 274.187 300.69 276.676 297.623 276.676H292.068V265.564Z" fill="#FF7262"/>
<path d="M303.179 282.231C303.179 285.298 300.69 287.787 297.623 287.787C294.557 287.787 292.068 285.298 292.068 282.231C292.068 279.165 294.557 276.676 297.623 276.676C300.69 276.676 303.179 279.165 303.179 282.231Z" fill="#1ABCFE"/>
<rect x="184.068" y="250.691" width="64" height="64" rx="8" fill="#F7F9FD"/>
<g clip-path="url(#clip2_149_11981)">
<mask id="mask0_149_11981" style="mask-type:luminance" maskUnits="userSpaceOnUse" x="202" y="267" width="30" height="31">
<path d="M231.068 267.23H202.068V297.23H231.068V267.23Z" fill="white"/>
</mask>
<g mask="url(#mask0_149_11981)">
<path d="M219.327 279.927L230.123 267.23H227.564L218.19 278.255L210.703 267.23H202.068L213.39 283.901L202.068 297.215H204.626L214.526 285.573L222.432 297.215H231.068L219.326 279.927H219.327ZM215.823 284.048L214.676 282.388L205.548 269.179H209.478L216.844 279.839L217.991 281.499L227.566 295.355H223.636L215.823 284.048V284.048Z" fill="#0D0516"/>
</g>
</g>
<rect x="336.068" y="250.691" width="64" height="64" rx="8" fill="#F7F9FD"/>
<path d="M357.968 293.43L355.728 268.23H380.408L378.168 293.43L368.068 296.23L357.968 293.43ZM361.268 284.23L361.698 289.09L368.068 290.86L374.398 289.11L375.248 279.62H364.648L365.068 274.79L368.068 274.68H368.628L371.788 274.79L372.078 278.06H375.178L374.588 271.45H362.308L361.308 282.7H371.838L371.478 286.7L368.068 287.64L364.628 286.71L364.368 284.23H361.268Z" fill="#0D0516"/>
<rect x="412.068" y="250.691" width="64" height="64" rx="8" fill="#F7F9FD"/>
<g clip-path="url(#clip3_149_11981)">
<mask id="mask1_149_11981" style="mask-type:luminance" maskUnits="userSpaceOnUse" x="430" y="267" width="30" height="31">
<path d="M459.068 267.23H430.068V297.23H459.068V267.23Z" fill="white"/>
</mask>
<g mask="url(#mask1_149_11981)">
<path d="M447.327 279.927L458.123 267.23H455.564L446.19 278.255L438.703 267.23H430.068L441.39 283.901L430.068 297.215H432.626L442.526 285.573L450.432 297.215H459.068L447.326 279.927H447.327ZM443.823 284.048L442.676 282.388L433.548 269.179H437.478L444.844 279.839L445.991 281.499L455.566 295.355H451.636L443.823 284.048V284.048Z" fill="#0D0516"/>
</g>
</g>
<circle cx="444.068" cy="173.691" r="36" stroke="#8CC9FD" stroke-width="8"/>
<circle cx="57.0679" cy="393.691" r="36" stroke="#6546FF" stroke-width="8"/>
<defs>
<clipPath id="clip0_149_11981">
<rect x="28.0679" y="130.615" width="452" height="72" rx="36" transform="rotate(-14 28.0679 130.615)" fill="white"/>
</clipPath>
<clipPath id="clip1_149_11981">
<rect x="42.0679" y="469.615" width="424" height="72" rx="36" transform="rotate(-14 42.0679 469.615)" fill="white"/>
</clipPath>
<clipPath id="clip2_149_11981">
<rect width="29" height="30" fill="white" transform="translate(202.068 267.23)"/>
</clipPath>
<clipPath id="clip3_149_11981">
<rect width="29" height="30" fill="white" transform="translate(430.068 267.23)"/>
</clipPath>
</defs>
</svg>
