<svg width="18" height="18" viewBox="0 0 18 18" fill="none" xmlns="http://www.w3.org/2000/svg">
<path d="M4.50845 10.3917C4.51035 10.4298 4.50449 10.4679 4.49121 10.5036C4.47793 10.5394 4.45752 10.5721 4.43121 10.5997C4.4049 10.6273 4.37325 10.6493 4.33818 10.6643C4.3031 10.6793 4.26534 10.687 4.2272 10.687H1.12501C0.998048 10.6872 0.874757 10.6444 0.775184 10.5657C0.675611 10.4869 0.605612 10.3768 0.57657 10.2532C0.558487 10.1686 0.55932 10.081 0.579012 9.99679C0.598703 9.91256 0.636765 9.83371 0.690476 9.7659C1.18675 9.10776 1.84521 8.58957 2.60157 8.26192C2.2695 7.95916 2.01482 7.58123 1.85884 7.1598C1.70287 6.73836 1.65015 6.28569 1.7051 5.83969C1.76004 5.39369 1.92106 4.96735 2.17466 4.59638C2.42826 4.2254 2.76706 3.92059 3.16268 3.70748C3.55831 3.49437 3.99924 3.37916 4.44854 3.3715C4.89785 3.36384 5.34245 3.46395 5.74511 3.66345C6.14777 3.86295 6.49676 4.15603 6.76286 4.51815C7.02896 4.88026 7.20442 5.30086 7.27454 5.74473C7.28359 5.80442 7.2729 5.86543 7.24409 5.91849C7.21528 5.97154 7.16992 6.01373 7.11493 6.03864C6.33474 6.39932 5.67399 6.97565 5.21066 7.69961C4.74733 8.42358 4.50075 9.26496 4.50001 10.1245C4.50001 10.2145 4.50001 10.3031 4.50845 10.3917ZM17.3053 9.7652C16.8102 9.10782 16.1532 8.58991 15.3984 8.26192C15.7305 7.95916 15.9852 7.58123 16.1412 7.1598C16.2971 6.73836 16.3499 6.28569 16.2949 5.83969C16.24 5.39369 16.079 4.96735 15.8254 4.59638C15.5718 4.2254 15.233 3.92059 14.8373 3.70748C14.4417 3.49437 14.0008 3.37916 13.5515 3.3715C13.1022 3.36384 12.6576 3.46395 12.2549 3.66345C11.8522 3.86295 11.5033 4.15603 11.2372 4.51815C10.9711 4.88026 10.7956 5.30086 10.7255 5.74473C10.7164 5.80442 10.7271 5.86543 10.7559 5.91849C10.7847 5.97154 10.8301 6.01373 10.8851 6.03864C11.6653 6.39932 12.326 6.97565 12.7894 7.69961C13.2527 8.42358 13.4993 9.26496 13.5 10.1245C13.5 10.2145 13.5 10.3031 13.4916 10.3917C13.4897 10.4298 13.4955 10.4679 13.5088 10.5036C13.5221 10.5394 13.5425 10.5721 13.5688 10.5997C13.5951 10.6273 13.6268 10.6493 13.6618 10.6643C13.6969 10.6793 13.7347 10.687 13.7728 10.687H16.875C17.002 10.6872 17.1253 10.6444 17.2248 10.5657C17.3244 10.4869 17.3944 10.3768 17.4234 10.2532C17.4416 10.1684 17.4408 10.0807 17.421 9.9963C17.4012 9.91192 17.3629 9.83299 17.3088 9.7652H17.3053ZM11.0475 12.8013C11.6076 12.3724 12.0192 11.7787 12.2244 11.1038C12.4297 10.4288 12.4183 9.70656 12.1918 9.03844C11.9654 8.37032 11.5353 7.78996 10.9619 7.37891C10.3886 6.96787 9.70089 6.74681 8.99544 6.74681C8.28998 6.74681 7.60226 6.96787 7.02894 7.37891C6.45561 7.78996 6.02549 8.37032 5.79904 9.03844C5.57259 9.70656 5.5612 10.4288 5.76645 11.1038C5.9717 11.7787 6.38329 12.3724 6.94337 12.8013C5.94953 13.2319 5.11965 13.9694 4.57524 14.9057C4.52587 14.9913 4.49988 15.0883 4.49988 15.187C4.49989 15.2858 4.52589 15.3828 4.57527 15.4683C4.62466 15.5538 4.69568 15.6248 4.78121 15.6742C4.86674 15.7235 4.96376 15.7495 5.06251 15.7495H12.9375C13.0363 15.7495 13.1333 15.7235 13.2188 15.6742C13.3043 15.6248 13.3754 15.5538 13.4247 15.4683C13.4741 15.3828 13.5001 15.2858 13.5001 15.187C13.5001 15.0883 13.4741 14.9913 13.4248 14.9057C12.8792 13.9688 12.0478 13.2312 11.0524 12.8013H11.0475Z" fill="#2F0FD1"/>
</svg>
