<svg width="20" height="21" viewBox="0 0 20 21" fill="none" xmlns="http://www.w3.org/2000/svg">
<path d="M5.00938 12.0468C5.0115 12.0891 5.00499 12.1314 4.99023 12.1711C4.97548 12.2109 4.9528 12.2472 4.92357 12.2779C4.89434 12.3086 4.85916 12.333 4.82019 12.3497C4.78122 12.3664 4.73927 12.3749 4.69688 12.3749H1.25001C1.10894 12.3751 0.971953 12.3276 0.861316 12.2401C0.750679 12.1525 0.672902 12.0302 0.640634 11.8928C0.620541 11.7988 0.621467 11.7016 0.643346 11.608C0.665225 11.5144 0.707517 11.4268 0.767196 11.3514C1.31861 10.6202 2.05024 10.0444 2.89063 9.68034C2.52167 9.34394 2.23868 8.92402 2.06538 8.45576C1.89208 7.9875 1.8335 7.48453 1.89455 6.98898C1.9556 6.49342 2.13451 6.01971 2.41629 5.60752C2.69807 5.19532 3.07451 4.85665 3.51409 4.61986C3.95368 4.38307 4.4436 4.25506 4.94283 4.24655C5.44206 4.23804 5.93606 4.34927 6.38346 4.57094C6.83085 4.79261 7.21863 5.11825 7.51429 5.5206C7.80996 5.92295 8.00491 6.39028 8.08282 6.88347C8.09288 6.94979 8.081 7.01758 8.04899 7.07653C8.01697 7.13548 7.96658 7.18236 7.90548 7.21003C7.03859 7.61079 6.30443 8.25116 5.78962 9.05556C5.27481 9.85996 5.00083 10.7948 5.00001 11.7499C5.00001 11.8499 5.00001 11.9483 5.00938 12.0468ZM19.2281 11.3507C18.678 10.6202 17.948 10.0448 17.1094 9.68034C17.4783 9.34394 17.7613 8.92402 17.9346 8.45576C18.1079 7.9875 18.1665 7.48453 18.1055 6.98898C18.0444 6.49342 17.8655 6.01971 17.5837 5.60752C17.3019 5.19532 16.9255 4.85665 16.4859 4.61986C16.0463 4.38307 15.5564 4.25506 15.0572 4.24655C14.558 4.23804 14.064 4.34927 13.6166 4.57094C13.1692 4.79261 12.7814 5.11825 12.4857 5.5206C12.1901 5.92295 11.9951 6.39028 11.9172 6.88347C11.9071 6.94979 11.919 7.01758 11.951 7.07653C11.983 7.13548 12.0334 7.18236 12.0945 7.21003C12.9614 7.61079 13.6956 8.25116 14.2104 9.05556C14.7252 9.85996 14.9992 10.7948 15 11.7499C15 11.8499 15 11.9483 14.9906 12.0468C14.9885 12.0891 14.995 12.1314 15.0098 12.1711C15.0245 12.2109 15.0472 12.2472 15.0764 12.2779C15.1057 12.3086 15.1409 12.333 15.1798 12.3497C15.2188 12.3664 15.2607 12.3749 15.3031 12.3749H18.75C18.8911 12.3751 19.0281 12.3276 19.1387 12.2401C19.2493 12.1525 19.3271 12.0302 19.3594 11.8928C19.3796 11.7987 19.3787 11.7012 19.3566 11.6074C19.3346 11.5137 19.2921 11.426 19.232 11.3507H19.2281ZM12.275 14.7241C12.8973 14.2475 13.3546 13.5879 13.5827 12.838C13.8108 12.088 13.7981 11.2855 13.5465 10.5431C13.2949 9.80079 12.817 9.15594 12.1799 8.69922C11.5429 8.24251 10.7788 7.99689 9.99493 7.99689C9.21109 7.99689 8.44696 8.24251 7.80993 8.69922C7.17289 9.15594 6.69499 9.80079 6.44338 10.5431C6.19177 11.2855 6.17911 12.088 6.40717 12.838C6.63523 13.5879 7.09255 14.2475 7.71485 14.7241C6.61058 15.2026 5.6885 16.022 5.0836 17.0624C5.02874 17.1574 4.99986 17.2652 4.99987 17.3749C4.99987 17.4846 5.02877 17.5924 5.08364 17.6874C5.13851 17.7825 5.21743 17.8613 5.31246 17.9162C5.40749 17.971 5.51529 17.9999 5.62501 17.9999H14.375C14.4847 17.9999 14.5925 17.971 14.6876 17.9162C14.7826 17.8613 14.8615 17.7825 14.9164 17.6874C14.9712 17.5924 15.0001 17.4846 15.0001 17.3749C15.0002 17.2652 14.9713 17.1574 14.9164 17.0624C14.3102 16.0213 13.3864 15.2018 12.2805 14.7241H12.275Z" fill="#B2B9C7"/>
</svg>
